<svg width="27" height="24" fill="none" xmlns="http://www.w3.org/2000/svg"><path d="M16.65 19.743c0 .3-.243.544-.544.544h-4.332a.545.545 0 01-.544-.544v-.94H.969v2.496a2.608 2.608 0 002.605 2.605h20.732a2.608 2.608 0 002.606-2.605v-2.496H16.65v.94zm7.657-13.942h-4.743v-1.99c0-1.598-1.3-2.899-2.9-2.899h-5.449a2.902 2.902 0 00-2.899 2.9v1.99H3.574A2.608 2.608 0 00.969 8.405v8.83h10.26v-.572c0-.3.245-.544.545-.544h4.332c.3 0 .545.244.545.544v.571h10.26V8.406a2.608 2.608 0 00-2.604-2.605zm-6.738 0h-7.257v-1.99c0-.498.405-.903.903-.903h5.45c.498 0 .904.405.904.903v1.99z" fill="#000"/></svg>