<svg width="25" height="27" fill="none" xmlns="http://www.w3.org/2000/svg"><path d="M17.924 5.453l1.193 7.953H11.84c-.133-.142-.312-.854-.5-.854l-2.47-.345V.908h6.569c1.035 0 1.918.803 2.088 1.899l.17 1.131h4.648c.505 0 .94.382 1.038.913l.918 4.924c.114.615-.257 1.213-.83 1.337a.988.988 0 01-.209.022h-1.75c-.505 0-.94-.383-1.038-.914l-.889-4.767h-1.66zm-10.466 0v4.923H.4V5.453h7.058zM.4 1.666c0-.419.316-.758.706-.758h6.352v4.545H.4V1.666zm7.058 8.71v5.302H.4v-5.302h7.058zm12 5.302H8.87v-3.787h2.178l1.205 1.293a.682.682 0 00.5.222h6.364l.34 2.272zM9.576 26.661c-1.754 0-3.176-1.526-3.176-3.408 0-1.883 1.422-3.409 3.176-3.409 1.754 0 3.176 1.526 3.176 3.409 0 1.882-1.422 3.408-3.176 3.408z" fill="#000"/><path d="M7.458 15.678H.4v8.332c0 .418.316.758.706.758h4.476a4.837 4.837 0 01-.241-1.515c0-2.51 1.896-4.545 4.235-4.545 2.339 0 4.235 2.035 4.235 4.545 0 .53-.085 1.04-.241 1.515h3.574c1.074 0 1.977-.863 2.103-2.007l.053-1.402.057-1.515.1-2.65H7.459v-1.516z" fill="#000"/></svg>