<svg width="23" height="26" fill="none" xmlns="http://www.w3.org/2000/svg"><path d="M22.33 5.891v2.345H.319V5.891A2.724 2.724 0 013.04 3.168h16.567A2.724 2.724 0 0122.33 5.89zM.317 10.429v12.177a2.724 2.724 0 002.724 2.723h16.566a2.723 2.723 0 002.723-2.723V10.43H.317zm5.6 11.271H3.193v-2.723h2.724V21.7zm0-4.841H3.193v-2.723h2.724v2.723zm4.539 4.841H7.732v-2.723h2.724V21.7zm0-4.841H7.732v-2.723h2.724v2.723zm4.538 4.841h-2.723v-2.723h2.723V21.7zm0-4.841h-2.723v-2.723h2.723v2.723zm4.539 4.841h-2.724v-2.723h2.724V21.7zm0-4.841h-2.724v-2.723h2.724v2.723z" fill="#000"/><path d="M5.008 5.701c.752 0 1.362-1.126 1.362-2.515 0-1.389-.61-2.515-1.362-2.515-.751 0-1.361 1.126-1.361 2.515 0 1.39.61 2.515 1.361 2.515z" fill="#000"/><path d="M5.01 5.199c.6 0 1.088-.901 1.088-2.012 0-1.112-.487-2.012-1.089-2.012-.601 0-1.09.9-1.09 2.012 0 1.11.489 2.012 1.09 2.012zm12.707.502c.752 0 1.361-1.126 1.361-2.515 0-1.389-.61-2.515-1.361-2.515-.752 0-1.361 1.126-1.361 2.515 0 1.39.609 2.515 1.36 2.515z" fill="#000"/><path d="M17.717 4.895c.601 0 1.089-.9 1.089-2.012 0-1.11-.488-2.012-1.09-2.012-.6 0-1.089.901-1.089 2.012 0 1.112.488 2.012 1.09 2.012z" fill="#000"/></svg>