<svg width="26" height="26" fill="none" xmlns="http://www.w3.org/2000/svg"><g opacity=".9"><path d="M22.955 2.207h-1.682v-.961a.962.962 0 00-1.924 0v.961H5.89v-.961a.962.962 0 00-1.924 0v.961H2.282C1.09 2.207.12 3.177.12 4.371v2.644h25V4.37a2.167 2.167 0 00-2.164-2.164zM.119 23.12c0 1.193.97 2.164 2.163 2.164h20.673c1.193 0 2.163-.97 2.163-2.163V8.938h-25V23.12z" fill="#000"/><path d="M3.532 19.912v-7.131h2.59c.778 0 1.427.16 1.95.482a2.99 2.99 0 011.175 1.286c.26.535.391 1.131.391 1.787 0 .724-.144 1.353-.432 1.889-.288.535-.696.95-1.225 1.245-.522.295-1.142.442-1.858.442H3.532zm4.71-3.576c0-.462-.084-.867-.251-1.215a1.888 1.888 0 00-.723-.824c-.315-.2-.696-.3-1.145-.3H4.918v4.7h1.205c.455 0 .84-.1 1.155-.302.315-.207.552-.488.713-.843a2.86 2.86 0 00.251-1.216zm7.431 2.361v1.215H10.72v-7.131h4.861v1.215h-3.475v1.718h3.003v1.125h-3.003v1.858h3.566zm.501-2.401a3.64 3.64 0 01.924-2.42c.302-.348.67-.623 1.105-.824.435-.207.93-.311 1.487-.311.656 0 1.222.144 1.697.432.482.287.84.662 1.075 1.124l-1.065.734a1.655 1.655 0 00-.472-.633 1.657 1.657 0 00-.623-.332 2.242 2.242 0 00-.653-.1 1.9 1.9 0 00-.914.211c-.254.14-.468.325-.642.552a2.43 2.43 0 00-.392.764 3.06 3.06 0 00-.12.843c0 .315.05.62.15.914.1.288.241.546.422.774.187.22.408.398.663.532.26.127.546.19.854.19.22 0 .445-.036.672-.11.228-.073.439-.19.633-.351.194-.16.345-.368.452-.623l1.135.653a2.11 2.11 0 01-.693.904c-.315.248-.67.435-1.064.562a3.8 3.8 0 01-1.176.191 3.12 3.12 0 01-1.396-.311 3.66 3.66 0 01-1.095-.844 4.267 4.267 0 01-.713-1.185 3.746 3.746 0 01-.25-1.336z" fill="#fff"/></g></svg>