<svg width="16" height="18" fill="none" xmlns="http://www.w3.org/2000/svg"><path fill-rule="evenodd" clip-rule="evenodd" d="M2.85.102c-.314.16-.448.42-.45.875v.217l-.687.013c-.6.012-.71.023-.872.089-.36.146-.66.453-.777.794-.059.172-.062.57-.063 7.495-.002 8.075-.018 7.491.22 7.84.156.231.411.421.678.505.217.069.337.07 7.1.07 6.764 0 6.884-.001 7.101-.07.267-.084.523-.274.679-.504.237-.35.22.232.22-7.826 0-8.129.02-7.488-.244-7.844-.15-.201-.445-.423-.653-.49-.072-.023-.428-.048-.815-.057l-.687-.015-.001-.217c0-.119-.015-.278-.033-.354-.135-.591-.944-.83-1.4-.414-.205.187-.27.353-.27.701v.29H4.103V.91c-.002-.348-.065-.514-.27-.7-.254-.232-.658-.276-.985-.108zm.64.503c.085.067.092.094.092.334V1.2h-.66V.987c0-.212.062-.397.146-.431.114-.046.335-.02.423.049zm9.452-.028c.098.076.136.192.136.41V1.2h-.661V.939c0-.24.007-.267.092-.334.103-.082.343-.098.433-.028zM2.406 2.228c.01.433.023.52.089.647.133.254.417.434.685.434.135 0 .216-.054.256-.17.062-.18-.038-.297-.323-.38-.157-.047-.19-.154-.191-.619v-.413h8.972l.001.483c0 .394.013.51.065.624.176.389.677.607.892.388a.304.304 0 00.086-.177c0-.114-.144-.263-.255-.263a.345.345 0 01-.175-.073c-.09-.072-.092-.079-.092-.528v-.454h1.167c.736 0 1.224.014 1.32.039a.885.885 0 01.508.434c.059.13.064.256.065 1.451V4.96l-5.602.01-5.603.008-.084.099c-.103.12-.106.198-.012.318l.072.093h11.23v3.499c0 3.809.011 3.586-.197 3.78-.171.16-.268.172-1.337.172-.94 0-1.015.005-1.202.075-.238.09-.48.32-.604.575-.084.173-.086.195-.103 1.3-.013.787-.03 1.148-.06 1.2-.072.127-.282.29-.4.311-.063.012-2.455.017-5.315.011l-5.2-.01-.165-.098a.72.72 0 01-.27-.282l-.103-.183V5.489h1.46c1.415 0 1.463-.002 1.53-.07.088-.09.09-.25.004-.357l-.067-.083-1.464-.01-1.464-.01.001-1.308c0-1.194.006-1.32.065-1.45.079-.176.315-.385.485-.431.07-.02.396-.036.724-.038l.597-.004.013.501zm-.441 4.345c-.168.044-.26.107-.332.226-.062.102-.068.182-.068.903 0 .87.009.91.23 1.058.09.06.175.066.883.066.724 0 .791-.005.897-.07.215-.133.249-.276.25-1.055 0-.644-.004-.697-.078-.843-.137-.274-.214-.297-1-.305-.373-.004-.725.005-.782.02zm3.548 0c-.168.044-.26.107-.333.226-.061.102-.067.182-.067.896 0 .869.013.936.219 1.063.101.063.179.069.894.069 1.15 0 1.13.018 1.13-1.125 0-.697-.005-.765-.07-.877-.14-.24-.228-.264-.99-.272-.374-.004-.726.005-.783.02zm3.54.002a.52.52 0 00-.348.258c-.054.099-.062.212-.062.87 0 1.142-.019 1.124 1.13 1.124 1.147 0 1.114.033 1.113-1.132 0-1.14.009-1.13-1.043-1.141-.373-.004-.729.005-.79.02zm3.547 0a.52.52 0 00-.348.258c-.053.099-.061.212-.061.87 0 1.143-.02 1.124 1.13 1.123.709 0 .793-.006.882-.066.222-.148.231-.187.231-1.058 0-1.148.01-1.137-1.043-1.148-.373-.004-.729.005-.79.02zM3.296 7.693l.01.607h-1.22V7.068l.6.01.6.009.01.606zm3.548 0l.01.607h-1.22V7.068l.6.01.6.009.01.606zm3.52-.009V8.3H9.148v-.592c0-.325.01-.602.024-.615.012-.013.286-.024.608-.024h.586v.615zm3.549 0V8.3h-1.218v-.592c0-.325.01-.602.024-.615.012-.013.286-.024.608-.024h.586v.615zM1.93 9.836a.583.583 0 00-.315.26c-.045.088-.052.24-.043.909.01.802.01.804.097.898.17.183.218.192 1.016.192.833 0 .92-.02 1.054-.25.064-.109.07-.182.07-.898 0-.732-.005-.785-.072-.877-.176-.237-.192-.241-1-.247a9.966 9.966 0 00-.807.013zm3.518.01a.532.532 0 00-.169.095c-.155.141-.166.213-.166 1.031 0 .845.008.888.203 1.036.085.064.156.07.866.08.875.013.954-.004 1.095-.234.076-.122.08-.16.08-.883 0-.693-.007-.766-.07-.875a.779.779 0 00-.168-.194c-.092-.069-.146-.074-.835-.08-.405-.004-.781.007-.836.024zm3.505.014a.573.573 0 00-.296.384c-.023.088-.033.4-.026.812.011.624.018.68.09.798.138.223.22.241 1.053.241.823 0 .916-.02 1.043-.227.064-.106.07-.174.07-.902 0-.717-.007-.796-.069-.898-.137-.228-.179-.239-1.008-.248-.577-.007-.774.002-.857.04zm3.648.054a.52.52 0 00-.349.257c-.053.1-.061.213-.061.87 0 1.143-.02 1.124 1.13 1.124.862 0 .901-.008 1.047-.233.06-.09.066-.175.066-.891 0-1.148.01-1.137-1.043-1.149-.373-.003-.729.006-.79.022zm-9.305 1.048l.01.606h-1.22v-1.232l.6.01.6.01.01.606zm3.548 0l.01.606h-1.22v-1.232l.6.01.6.01.01.606zm3.52-.009v.615H9.148v-.591c0-.326.01-.603.024-.616.012-.012.286-.023.608-.023h.586v.615zm3.549.07v.616h-1.218v-.592c0-.326.01-.602.024-.615.012-.013.286-.024.608-.024h.586v.615zm-12.07 2.118a.624.624 0 00-.2.18c-.075.116-.078.148-.078.9 0 .754.003.785.079.9.147.223.232.243 1.055.243.704 0 .738-.003.849-.08.258-.176.26-.187.26-1.062s-.002-.886-.26-1.063c-.11-.076-.145-.08-.85-.08-.629 0-.75.01-.854.062zm3.565-.012a.706.706 0 00-.191.142l-.087.095v1.712l.103.109c.156.165.273.183 1.068.17.789-.012.81-.017.983-.252.068-.092.072-.145.072-.883 0-.875-.002-.886-.26-1.063-.11-.076-.144-.08-.85-.078-.533 0-.762.014-.838.048zm3.496.03c-.22.15-.26.242-.26.587-.001.37.05.458.26.458.19 0 .243-.08.243-.363v-.234h1.218v1.23H9.163l-.04-.104c-.07-.192-.362-.19-.443.004a.436.436 0 00.09.442c.153.167.252.185 1.004.185.756 0 .85-.018 1.008-.192l.087-.095v-1.711l-.087-.095c-.16-.175-.25-.192-1.037-.192-.696 0-.731.004-.841.08zm6.226.28c0 .006-.583.599-1.296 1.319l-1.295 1.309.017-1.098c.025-1.573-.067-1.477 1.426-1.504a50.725 50.725 0 001.148-.026zm-11.826.783v.615H2.087v-1.23h1.217v.615zm3.548 0v.615H5.634v-1.23h1.218v.615zm8.527 2.843a.767.767 0 01-.267.285l-.168.105-6.911.01-6.912.008-.187-.098a.654.654 0 01-.3-.289.795.795 0 01-.113-.291v-.101l.113.07c.31.191.032.184 6.03.173l5.528-.009.226-.113c.198-.099.398-.288 1.634-1.538l1.409-1.425.009 1.517.009 1.517-.1.18z" fill="#0093DD"/></svg>