<svg width="26" height="26" fill="none" xmlns="http://www.w3.org/2000/svg"><g opacity=".9"><path d="M22.955 2.207h-1.683v-.961a.962.962 0 00-1.923 0v.961H5.888v-.961a.962.962 0 00-1.923 0v.961H2.282c-1.193 0-2.164.97-2.164 2.164v2.644h25V4.37c0-1.193-.97-2.164-2.163-2.164zM.118 23.12c0 1.193.97 2.164 2.164 2.164h20.672c1.193 0 2.164-.97 2.164-2.163V8.938h-25V23.12z" fill="#000"/><path d="M6.016 20.717c-.522 0-.997-.1-1.425-.3a3.46 3.46 0 01-1.093-.813 3.976 3.976 0 01-.702-1.164 3.687 3.687 0 01-.25-1.334c0-.474.086-.926.26-1.354.18-.434.425-.819.732-1.153a3.445 3.445 0 011.103-.803c.428-.2.896-.3 1.405-.3.514 0 .983.103 1.404.31.428.208.792.485 1.093.833.301.348.535.736.702 1.164.167.427.25.869.25 1.323 0 .468-.086.92-.26 1.354a3.798 3.798 0 01-.732 1.154 3.372 3.372 0 01-2.487 1.083zm-2.067-3.61c0 .307.047.605.14.892.094.288.228.545.402.772.18.221.398.398.652.532.26.127.555.19.883.19.334 0 .631-.066.892-.2.261-.14.478-.324.652-.552a2.55 2.55 0 00.391-.772c.094-.288.14-.575.14-.863 0-.307-.05-.601-.15-.882a2.33 2.33 0 00-.41-.763 1.802 1.802 0 00-.653-.531 1.823 1.823 0 00-.862-.2c-.341 0-.642.07-.903.21a1.93 1.93 0 00-.642.542 2.596 2.596 0 00-.401.762 2.9 2.9 0 00-.13.862zm6.177-.051a3.635 3.635 0 01.923-2.417 3.22 3.22 0 011.103-.822c.435-.208.93-.311 1.485-.311.655 0 1.22.143 1.695.43.481.288.839.663 1.073 1.124l-1.063.732a1.653 1.653 0 00-.472-.631 1.654 1.654 0 00-.621-.331 2.237 2.237 0 00-.652-.1c-.348 0-.652.07-.913.21-.254.14-.468.324-.642.552a2.423 2.423 0 00-.391.762c-.08.28-.12.561-.12.842 0 .315.05.619.15.913.1.288.24.545.421.772.188.221.408.398.662.532.261.127.545.19.853.19.22 0 .444-.036.672-.11.227-.073.438-.19.632-.35a1.6 1.6 0 00.451-.623l1.133.652c-.14.355-.37.655-.692.903a3.375 3.375 0 01-1.063.561 3.81 3.81 0 01-1.173.191c-.508 0-.973-.104-1.395-.31a3.655 3.655 0 01-1.093-.843 4.263 4.263 0 01-.712-1.184 3.742 3.742 0 01-.25-1.334zM22.69 14.76h-2.276v5.907H19.04v-5.908h-2.277v-1.213h5.928v1.213z" fill="#fff"/></g></svg>