<svg width="26" height="26" fill="none" xmlns="http://www.w3.org/2000/svg"><g opacity=".9"><path d="M22.956 2.207h-1.683v-.961a.962.962 0 00-1.923 0v.961H5.889v-.961a.962.962 0 00-1.924 0v.961H2.284c-1.193 0-2.164.97-2.164 2.164v2.644h25V4.37c0-1.193-.97-2.164-2.163-2.164zM.12 23.12c0 1.193.97 2.164 2.163 2.164h20.672c1.193 0 2.164-.97 2.164-2.163V8.938h-25V23.12z" fill="#000"/><path d="M8.585 14.406a1.64 1.64 0 00-.26-.19 2.53 2.53 0 00-.45-.23 4.08 4.08 0 00-.57-.19 2.25 2.25 0 00-.63-.09c-.374 0-.657.07-.85.21a.695.695 0 00-.28.59c0 .193.06.347.18.46.12.114.3.21.54.29.24.08.54.167.9.26.466.114.87.254 1.21.42.346.16.61.374.79.64.187.26.28.607.28 1.04 0 .38-.07.707-.21.98a1.76 1.76 0 01-.58.651c-.247.167-.527.29-.84.37-.314.073-.647.11-1 .11a5.22 5.22 0 01-1.06-.11 5.828 5.828 0 01-1.021-.31 4.882 4.882 0 01-.9-.5l.61-1.19c.06.06.167.14.32.24.153.093.34.19.56.29.22.093.46.173.72.24.26.066.524.1.79.1.374 0 .657-.063.85-.19a.609.609 0 00.29-.54.6.6 0 00-.23-.5 2.045 2.045 0 00-.64-.31 20.421 20.421 0 00-.97-.3 6.21 6.21 0 01-1.12-.42c-.3-.16-.523-.36-.67-.6-.147-.24-.22-.54-.22-.9 0-.488.113-.894.34-1.221.233-.334.547-.584.94-.75.393-.174.83-.26 1.31-.26.334 0 .647.036.94.11.3.073.58.17.84.29.26.12.494.25.7.39l-.61 1.12zm6.834 4.031v1.21h-4.931v-7.101h4.841v1.21h-3.46v1.71h2.99v1.12h-2.99v1.85h3.55zm1.076 1.21v-7.101h3.01c.327 0 .628.066.9.2.274.133.511.313.711.54.207.226.367.48.48.76.113.28.17.567.17.86 0 .4-.093.78-.28 1.14a2.39 2.39 0 01-.77.88c-.327.227-.713.34-1.16.34h-1.68v2.381h-1.38zm1.38-3.59h1.6a.766.766 0 00.45-.14.97.97 0 00.32-.4c.08-.18.12-.384.12-.61 0-.248-.046-.458-.14-.631a.91.91 0 00-.35-.39.857.857 0 00-.46-.13h-1.54v2.3z" fill="#fff"/></g></svg>