<svg width="12" height="9" viewBox="0 0 12 9" fill="none" xmlns="http://www.w3.org/2000/svg">
<path fill-rule="evenodd" clip-rule="evenodd" d="M11.3537 0.645917C11.4002 0.692363 11.4372 0.747538 11.4624 0.808284C11.4876 0.869029 11.5005 0.93415 11.5005 0.999917C11.5005 1.06568 11.4876 1.13081 11.4624 1.19155C11.4372 1.2523 11.4002 1.30747 11.3537 1.35392L4.35365 8.35392C4.30721 8.40048 4.25203 8.43742 4.19129 8.46263C4.13054 8.48784 4.06542 8.50081 3.99965 8.50081C3.93389 8.50081 3.86877 8.48784 3.80802 8.46263C3.74728 8.43742 3.6921 8.40048 3.64565 8.35392L0.145655 4.85392C0.0517683 4.76003 -0.000976562 4.63269 -0.000976562 4.49992C-0.000976562 4.36714 0.0517683 4.2398 0.145655 4.14592C0.239542 4.05203 0.366879 3.99929 0.499655 3.99929C0.632431 3.99929 0.759768 4.05203 0.853655 4.14592L3.99965 7.29292L10.6457 0.645917C10.6921 0.599354 10.7473 0.562411 10.808 0.537205C10.8688 0.511998 10.9339 0.499023 10.9997 0.499023C11.0654 0.499023 11.1305 0.511998 11.1913 0.537205C11.252 0.562411 11.3072 0.599354 11.3537 0.645917Z" fill="white"/>
</svg>
