<svg width="32" height="27" viewBox="0 0 32 27" fill="none" xmlns="http://www.w3.org/2000/svg">
<g opacity="0.9">
<path d="M22.4723 0.71875C24.6364 0.71875 26.392 2.47321 26.392 4.63845C26.392 6.80251 24.6364 8.55814 22.4723 8.55814C20.3083 8.55814 18.5526 6.80251 18.5526 4.63845C18.5526 2.47321 20.3083 0.71875 22.4723 0.71875Z" fill="black"/>
<path d="M26.392 11.1714L31.6182 16.3975L29.7704 18.2449L26.392 14.8665V26.8498H23.7788V21.6236H21.1655V26.8498H18.5526V11.1714H26.392Z" fill="black"/>
<path d="M0.260672 16.3975L5.4868 11.1714H13.3262L15.9395 22.9301H13.3262V26.8498H10.7133V22.9301H8.10006V26.8498H5.4868V22.9301H2.87393L4.43201 15.9228L2.10841 18.2449L0.260672 16.3975Z" fill="black"/>
<path d="M9.40648 0.71875C11.5705 0.71875 13.3262 2.47321 13.3262 4.63845C13.3262 6.80251 11.5705 8.55814 9.40648 8.55814C7.24241 8.55814 5.48678 6.80251 5.48678 4.63845C5.48678 2.47321 7.24241 0.71875 9.40648 0.71875Z" fill="black"/>
</g>
</svg>
