<svg width="24" height="34" fill="none" xmlns="http://www.w3.org/2000/svg"><path d="M12.139.24l.883 2.4h2.104l-1.894 1.43.799 2.147-1.977-1.137-2.061 1.263.925-2.315-2.103-1.6 2.566.084.757-2.273zm-1.514 27.404v5.683h2.944V27.56c3.912 1.263 10.137-.968 9.717-.968-.505 0-5.763-2.82-7.277-5.473 2.187 1.558 3.197 0 4.795 0-2.06-1.683-5.131-1.6-6.267-5.093 1.598 1.305 2.65 0 3.996 0-1.85-1.516-4.459-1.81-5.468-4.589 1.935 1.348 1.724 0 3.28 0-1.556-1.978-3.28-2.4-4.206-5.093-1.051 2.862-2.65 3.115-4.29 5.22 1.556 0 1.388 1.347 3.323 0-1.052 2.778-3.66 3.073-5.468 4.588 1.304 0 2.355 1.305 3.954 0-1.136 3.494-4.165 3.368-6.268 5.094 1.599 0 2.608 1.557 4.795 0-1.514 2.61-6.772 5.472-7.234 5.472-.421 0 5.762 2.231 9.674.926z" opacity=".9" fill-rule="evenodd" clip-rule="evenodd" fill="#000"/></svg>