<svg width="38" height="47" fill="none" xmlns="http://www.w3.org/2000/svg"><path d="M18.416 46.349a.749.749 0 00.13.128c.012.009.024.015.035.022a.69.69 0 00.152.08l.055.02a.74.74 0 00.212.035.74.74 0 00.266-.055.735.735 0 00.152-.08c.012-.008.024-.013.035-.022a.728.728 0 00.13-.128l17.524-22.411a.742.742 0 00.029-.875l-6.524-9.593a.741.741 0 00-.613-.325H8.002a.742.742 0 00-.613.325L.864 23.063a.742.742 0 00.03.875l17.522 22.41zm6.086-22.126L19 43.224l-5.5-19.001h11.003zm-10.593-1.484L19 15.211l5.091 7.527H13.91v.001zm12.137 1.484h8.955L20.781 42.41l5.265-18.188zm.611-1.484l3.46-7.359 5.004 7.359h-8.464zm-1.284-.755l-4.975-7.355h8.433l-3.458 7.355zm-12.745 0L9.17 14.63h8.433l-4.975 7.355zm-1.284.755H2.88l5.004-7.359 3.46 7.359zm.61 1.484L17.22 42.41 3 24.223h8.954zM19 6.641c.41 0 .742-.332.742-.742V1.381a.741.741 0 10-1.484 0V5.9c0 .41.332.742.742.742zm-6.262.493a.742.742 0 101.394-.508l-1.545-4.245a.742.742 0 00-1.394.508l1.545 4.245zm-4.764 3.049a.74.74 0 001.045.091.742.742 0 00.091-1.045L6.206 5.77a.742.742 0 00-1.137.953l2.905 3.46zm21.484.265a.74.74 0 00.569-.265l2.904-3.461a.741.741 0 10-1.137-.954L28.89 9.23a.741.741 0 00.568 1.219zm-5.147-2.871a.742.742 0 00.951-.443l1.545-4.245a.742.742 0 00-1.394-.508l-1.545 4.245a.741.741 0 00.443.951z" fill="#272727"/></svg>