<svg width="35" height="35" fill="none" xmlns="http://www.w3.org/2000/svg"><path d="M19.802 2.116l-1.017-.072c-.181 0-.326-.11-.363-.254l-.4-.944c-.144-.364-.653-.364-.834 0l-.4.944c-.072.145-.218.254-.363.254l-1.017.072a.433.433 0 00-.254.763l.8.654c.108.108.18.29.144.435l-.254 1.017c-.109.4.327.69.654.472l.871-.545a.539.539 0 01.472 0l.872.545c.326.218.762-.109.653-.472l-.254-.98a.417.417 0 01.145-.436l.8-.654c.29-.254.144-.762-.255-.799zm-7.771 2.978c-.109-.109-.145-.29-.109-.436l.327-.98c.145-.363-.254-.726-.617-.545l-.944.436c-.146.073-.327.036-.472-.036l-.763-.618c-.327-.254-.762.037-.726.4l.145 1.017c.037.181-.036.326-.181.435l-.835.581c-.327.218-.218.726.181.799l1.017.182a.43.43 0 01.327.326l.29.98c.109.364.617.436.799.073l.508-.907c.073-.146.218-.218.4-.218l1.016.036c.4 0 .617-.472.327-.762l-.69-.763zm-8.714 5.41a.447.447 0 01.037.472l-.436.944c-.182.363.181.726.544.617l.98-.327c.146-.072.328 0 .437.11l.762.689c.29.254.763.073.763-.327l-.037-1.016c0-.182.073-.327.218-.4l.908-.508c.363-.182.29-.69-.073-.799l-.98-.29a.491.491 0 01-.327-.327l-.181-1.017c-.073-.4-.581-.508-.8-.182l-.58.836c-.11.145-.254.217-.436.181l-1.017-.145a.447.447 0 00-.4.726l.618.763zm.036 8.969c.11-.109.29-.181.436-.145l1.017.254c.4.11.69-.327.472-.653l-.545-.872a.539.539 0 010-.472l.545-.871c.218-.327-.11-.763-.472-.654l-1.017.254a.417.417 0 01-.436-.145l-.653-.835c-.254-.29-.763-.145-.763.254l-.072 1.017c0 .181-.11.327-.255.363l-.944.4c-.363.145-.363.653 0 .834l.944.4c.146.072.255.218.255.363l.072 1.017a.434.434 0 00.763.254l.653-.763zm4.14 5.446l-.908-.509c-.145-.072-.218-.217-.218-.399l.037-1.017c0-.399-.472-.617-.763-.326l-.762.69c-.11.108-.29.145-.436.108l-.98-.326c-.363-.146-.727.254-.545.617l.436.944c.072.145.036.327-.037.472l-.617.763c-.254.326.036.762.4.726l1.016-.145c.182-.037.327.036.436.181l.58.835c.219.327.727.218.8-.181l.181-1.017a.385.385 0 01.327-.327l.98-.29c.364-.11.436-.618.073-.8zm4.901 4.103l-1.016.037c-.182 0-.327-.073-.4-.218l-.508-.908c-.182-.363-.69-.29-.799.073l-.29.98a.491.491 0 01-.327.327l-1.017.181c-.4.073-.508.581-.181.8l.835.58c.145.11.217.254.181.436l-.145 1.017c-.036.399.4.653.726.399l.835-.617a.447.447 0 01.472-.037l.944.436c.364.182.727-.181.618-.545l-.327-.98c-.073-.145 0-.327.109-.436l.69-.762c.217-.327 0-.799-.4-.763zm6.863 3.013c-.109-.109-.181-.29-.145-.436l.254-1.016a.428.428 0 00-.653-.472l-.872.544a.538.538 0 01-.472 0l-.871-.544c-.327-.218-.763.109-.654.472l.254 1.016a.417.417 0 01-.145.436l-.835.654c-.29.254-.145.762.254.762l1.017.073c.181 0 .327.109.363.254l.4.944c.145.363.653.363.834 0l.4-.944c.073-.145.218-.254.363-.254l1.017-.073a.433.433 0 00.254-.762l-.763-.654zm7.916-2.577l-1.017-.182a.43.43 0 01-.327-.327l-.326-.98c-.11-.363-.618-.436-.8-.073l-.508.908c-.072.145-.218.218-.399.218l-1.017-.036c-.4 0-.617.472-.326.762l.69.763c.108.109.145.29.108.436l-.327.98c-.145.363.255.726.618.544l.944-.435c.145-.073.327-.037.472.036l.835.617c.327.255.762-.036.726-.399l-.218-1.017c-.036-.181.037-.326.182-.435l.835-.581c.327-.218.218-.727-.145-.8zm4.684-4.358a.446.446 0 01-.037-.472l.436-.944c.182-.363-.181-.726-.544-.617l-.98.327c-.146.072-.328 0-.437-.11l-.762-.69c-.29-.253-.763-.072-.763.328l.037 1.016c0 .182-.073.327-.218.4l-.908.508c-.363.182-.29.69.073.799l.98.29c.145.037.29.182.327.327l.181 1.017c.073.4.581.508.8.181l.58-.835c.11-.145.254-.218.436-.181l1.017.145c.399.036.653-.4.399-.726l-.617-.763zm2.687-7.697l-.945-.399c-.145-.073-.254-.218-.254-.363l-.072-1.017a.433.433 0 00-.763-.254l-.653.799c-.11.109-.29.181-.436.145l-1.017-.254a.428.428 0 00-.472.654l.545.871a.539.539 0 010 .472l-.545.872c-.218.326.109.762.472.653l1.017-.254a.417.417 0 01.436.145l.653.799c.254.29.763.145.763-.254L33.345 19c0-.181.11-.327.254-.363l.945-.4c.399-.181.399-.69 0-.835zm-6.863-6.718l.908.509c.145.072.218.218.218.4l-.037 1.016c0 .4.472.617.763.327l.762-.69a.477.477 0 01.436-.11l.98.328c.364.145.727-.254.545-.617l-.436-.945c-.072-.145-.036-.326.037-.472l.617-.835c.254-.327-.036-.762-.4-.726l-1.016.218c-.182.036-.327-.036-.436-.182l-.58-.835c-.219-.327-.727-.218-.8.182l-.181 1.016a.385.385 0 01-.327.327l-.98.29c-.363.11-.436.618-.073.8zm-4.902-4.102l1.017-.036c.181 0 .326.072.4.217l.507.908c.182.363.69.29.8-.072l.29-.98a.49.49 0 01.327-.328l1.016-.181c.4-.073.509-.581.182-.799l-.835-.58c-.146-.11-.218-.255-.182-.437l.145-1.016a.446.446 0 00-.726-.4l-.835.618a.446.446 0 01-.472.036l-.944-.436c-.363-.181-.726.182-.617.545l.326.98c.073.145 0 .327-.108.436l-.69.762c-.218.327 0 .8.399.763zM14.297 17.07c-.516 0-.986-.109-1.409-.326a2.644 2.644 0 01-.991-.882 2.253 2.253 0 01-.356-1.24c0-.453.118-.866.356-1.238.248-.372.578-.666.991-.883a3.046 3.046 0 011.41-.325c.515 0 .98.108 1.393.325a2.5 2.5 0 01.991.883c.248.372.372.785.372 1.239 0 .454-.124.867-.372 1.239a2.499 2.499 0 01-.99.882 2.953 2.953 0 01-1.395.326zm0-1.394a.575.575 0 00.372-.14c.114-.103.201-.232.263-.386.072-.166.109-.341.109-.527a1.23 1.23 0 00-.109-.527.902.902 0 00-.263-.371.542.542 0 00-.372-.155.542.542 0 00-.371.155 1.039 1.039 0 00-.28.371c-.061.155-.092.33-.092.527 0 .186.03.361.093.527.072.154.165.283.279.387a.577.577 0 00.371.139zm6.644 7.805c-.516 0-.986-.108-1.41-.325a2.646 2.646 0 01-.99-.883 2.253 2.253 0 01-.357-1.239c0-.454.119-.867.357-1.239a2.64 2.64 0 01.99-.882 3.046 3.046 0 011.41-.326c.516 0 .98.109 1.394.326.423.216.753.51.99.882.248.372.372.785.372 1.24 0 .453-.123.866-.371 1.238a2.497 2.497 0 01-.991.883 2.952 2.952 0 01-1.394.325zm0-1.394a.574.574 0 00.372-.14c.113-.102.2-.231.263-.386.072-.166.108-.341.108-.527a1.23 1.23 0 00-.108-.526.9.9 0 00-.264-.372.542.542 0 00-.371-.155.542.542 0 00-.372.155 1.036 1.036 0 00-.279.372c-.061.155-.092.33-.092.526 0 .186.03.361.092.527.073.155.166.284.28.387.113.093.237.14.37.14zm-8.1.233l4.383-4.94 3.887-5.22 1.285 1.162-4.196 4.785-4.073 5.374-1.285-1.162z" opacity=".9" fill="#000"/></svg>