<svg width="20" height="22" fill="none" xmlns="http://www.w3.org/2000/svg"><path d="M10.09 20.182l1.818.818v-8.182H11m-1.818 6.955l-.91-.41v-6.545h1.364m6.24-9.091h2.306a1 1 0 001-1V2a1 1 0 00-1-1H7.198m6.612 2.727H2a1 1 0 01-1-1V2a1 1 0 011-1h2.719" stroke="#000" stroke-linecap="round" stroke-linejoin="round"/><path d="M8.453 12.819L1.908 3.728h11.864m-2.046 9.09l6.545-9.09h-2.045" stroke="#000" stroke-linecap="round" stroke-linejoin="round"/><path d="M4.954 5.154l4.134 5.442" stroke="#000" stroke-linecap="round"/></svg>