<svg width="27" height="29" fill="none" xmlns="http://www.w3.org/2000/svg"><path d="M19.814 12.225c-.483-2.395-3.16-2.434-3.16-2.434-7.92 7.834-5.514 18.427-5.514 18.427 1.623-10.26 8.674-15.993 8.674-15.993zm-12.877.299s-2.837-.95-4.207 1.203c0 0 1.95 11.915 4.937 14.495.104.337-1.638-8.397-.73-15.698zM7.26 2.88L5.1.45 3.467 3.263.49 4.567l2.17 2.42.32 3.236L5.952 8.91l3.178.696-.334-3.237 1.645-2.806L7.26 2.88zM23.813.428l-2.945 1.38-3.192-.622.407 3.227-1.579 2.84 3.192.612 2.215 2.382 1.568-2.851 2.948-1.37-2.221-2.371-.393-3.227zm.118 15.907l-1.158-1.336-.907 1.52-1.627.692 1.165 1.331.152 1.763 1.628-.695 1.72.396-.16-1.763.912-1.515-1.725-.393zm-5.743 2.68a10.823 10.823 0 00-3.95 9.248s2.646-5.983 5.292-6.804c1.06-.584-.278-3.025-1.342-2.444z" fill="#000"/></svg>