<svg width="25" height="24" fill="none" xmlns="http://www.w3.org/2000/svg"><path d="M22.771 8.09c-1.329-1.113-3.942-2.169-5.262-2.122a2.272 2.272 0 00-.16.01l-.063.006-.017-.06c-.452-1.654-2.528-3.95-3.707-4.689L12.505.35l-1.437.751a3.44 3.44 0 00-.198.104c-1.363.772-3.41 3.091-3.767 4.597l-.015.064-.065-.007c-1.525-.156-4.243.937-5.48 1.947L.074 8.829l.45 1.303c.191 1.514 1.856 4.326 3.127 5.293.04.03.08.058.119.085l.051.036-.025.057c-.64 1.423-.346 4.71.342 6.127l.298 1.398 1.646-.048c1.258.097 4.52-.417 5.882-1.408l.046-.034.045.037c1.052.855 3.88 1.544 5.52 1.544.287 0 .531-.02.726-.06l1.165-.14.4-1.173c.568-1.289 1.026-4.578.503-6.057l-.018-.054.045-.032c1.172-.836 2.746-3.392 3.214-4.899l.554-1.266-1.329-1.395-.063-.053zm-7.647 5.717c.13-.089.273-.16.43-.203a1.425 1.425 0 11.366 2.798 1.415 1.415 0 01-1.411-1.529l-1.776-1.025v2.05c.476.231.808.715.808 1.278 0 .785-.638 1.424-1.423 1.424a1.425 1.425 0 01-1.423-1.424c0-.563.332-1.047.808-1.277v-2.05l-1.776 1.024a1.421 1.421 0 01-1.412 1.53 1.424 1.424 0 11.366-2.798c.157.042.3.114.431.203l1.776-1.025-1.774-1.024a1.412 1.412 0 01-1.513.06 1.424 1.424 0 011.423-2.465c.489.281.742.81.703 1.338l1.776 1.025v-2.05a1.421 1.421 0 01-.808-1.278c0-.785.639-1.423 1.423-1.423.785 0 1.424.638 1.424 1.423 0 .563-.332 1.047-.808 1.278v2.05l1.775-1.025a1.421 1.421 0 012.647-.818 1.425 1.425 0 01-1.23 2.135c-.286 0-.566-.089-.803-.25l-1.774 1.024 1.775 1.024z" fill="#000" opacity=".9"/></svg>