<svg width="18" height="28" fill="none" xmlns="http://www.w3.org/2000/svg"><path d="M.039 23.618a3.762 3.762 0 003.758 3.758h1.71l-2.65-2.882a.841.841 0 011.237-1.14l2.438 2.65V24.64a3.762 3.762 0 00-3.758-3.758H.04v2.736zM1.273.916zm8.682 4.536a10.587 10.587 0 011.894 6.032v2.622c0 .27-.036.532-.096.784a7.356 7.356 0 003.876-6.474V2.472l-.524.005a6.03 6.03 0 00-5.15 2.975zM8.619.028a1.55 1.55 0 00-1.102.457L6.02 1.98c1.05.545 2 1.258 2.814 2.102a7.775 7.775 0 012.315-2.168L9.72.485a1.547 1.547 0 00-1.1-.457zM1.608 8.87a6.905 6.905 0 006.897 6.897c.917 0 1.663-.746 1.663-1.662v-2.622c0-4.77-3.815-8.751-8.56-9.008V8.87zM17.2 23.617v-2.735h-2.737a3.762 3.762 0 00-3.758 3.758v1.364l2.439-2.65a.841.841 0 011.238 1.14l-2.652 2.881h1.711a3.762 3.762 0 003.758-3.758zm-7.5 3.07v-9.213a.853.853 0 10-1.707 0v9.213a.853.853 0 101.707 0z" opacity=".9" fill="#000"/></svg>