<svg width="300" height="300" fill="none" xmlns="http://www.w3.org/2000/svg"><path fill-rule="evenodd" clip-rule="evenodd" d="M4.798 1.02c-1.14.567-2.68 1.927-3.422 3.022L.025 6.034v37.159c0 40.24-.123 38.672 3.264 41.789l1.592 1.465 38.488.151c37.58.148 38.533.124 40.427-1.02 1.067-.644 2.472-2.031 3.122-3.082 1.147-1.852 1.183-3.023 1.185-38.705.003-40.482.091-39.466-3.65-42.093L82.452.292 44.66.14C9.584-.002 6.72.062 4.798 1.02zm105.965.006c-1.122.563-2.595 1.769-3.273 2.68-1.212 1.626-1.236 2.277-1.395 38.968-.113 26.034.036 37.783.49 38.863.358.852 1.453 2.305 2.433 3.23l1.781 1.68h78.402l1.781-1.68c.98-.925 2.075-2.378 2.433-3.23.454-1.08.603-12.83.49-38.863-.159-36.69-.183-37.342-1.395-38.969C189.659-.12 191.066.001 150 .001c-34.238 0-37.359.082-39.237 1.025zm105.903.058c-1.13.597-2.599 1.803-3.265 2.68-1.182 1.56-1.213 2.433-1.363 39.209-.15 36.72-.126 37.658 1.036 39.523.655 1.05 2.063 2.438 3.13 3.082 1.894 1.144 2.847 1.168 40.427 1.02l38.488-.151 1.592-1.465c3.387-3.117 3.264-1.55 3.264-41.79V6.035l-1.351-1.992c-2.845-4.194-1.222-4.04-42.699-4.041-35.074-.002-37.323.06-39.259 1.083zM4.798 105.35c-1.14.563-2.685 1.929-3.435 3.034L0 110.393l.161 37.844c.157 36.803.194 37.887 1.352 39.407.655.859 1.994 2.046 2.976 2.637 1.67 1.006 4.08 1.086 37.42 1.247 39.789.193 40.867.116 43.777-3.149.994-1.114 1.954-2.615 2.133-3.334.18-.72.25-17.924.158-38.231l-.169-36.924-1.327-1.832c-2.788-3.849-1.493-3.736-42.506-3.734-34.139 0-37.271.082-39.177 1.025zm105.942.049c-1.135.602-2.608 1.812-3.273 2.689-1.183 1.56-1.213 2.439-1.371 39.25l-.161 37.655 1.351 1.956c.744 1.075 2.108 2.507 3.032 3.182 1.664 1.214 2.056 1.226 39.682 1.226 37.626 0 38.018-.012 39.682-1.226.924-.675 2.282-2.098 3.019-3.164l1.339-1.937v-36.856c0-40.546.089-39.524-3.652-42.151l-2.002-1.407-37.791-.155c-35.93-.148-37.893-.102-39.855.938zm106.045-.101c-1.074.522-2.547 1.768-3.273 2.771l-1.32 1.822-.169 36.924c-.092 20.307-.021 37.511.158 38.231.179.719 1.139 2.22 2.133 3.334 2.91 3.265 3.988 3.342 43.776 3.149 33.341-.161 35.751-.241 37.421-1.247.982-.591 2.322-1.778 2.976-2.637 1.158-1.52 1.195-2.604 1.352-39.407l.161-37.844-1.363-2.01c-2.861-4.216-1.213-4.06-42.702-4.046-33.047.011-37.414.118-39.15.96zM5.381 213.748c-.49.177-1.52.881-2.288 1.565-3.156 2.814-3.068 1.62-3.068 41.568v37.159l1.351 1.992c2.87 4.232 1.1 4.073 43.284 3.902l37.792-.152 2.001-1.406c3.741-2.627 3.653-1.611 3.65-42.092-.002-35.683-.038-36.854-1.185-38.706-.65-1.051-2.055-2.434-3.122-3.075-1.884-1.131-3.027-1.163-39.73-1.12-20.786.024-38.194.188-38.685.365zm105.935-.007c-.491.181-1.521.888-2.288 1.572-3.155 2.812-3.068 1.649-3.067 41.216.001 40.636-.125 39.231 3.762 42.039 1.658 1.198 2.176 1.214 40.277 1.214s38.619-.016 40.277-1.214c3.887-2.808 3.761-1.403 3.762-42.039.001-39.857.122-38.321-3.263-41.437l-1.592-1.465-38.488-.106c-21.168-.059-38.889.041-39.38.22zm104.888.755c-1.067.644-2.472 2.031-3.122 3.082-1.147 1.852-1.183 3.023-1.185 38.706-.003 40.481-.091 39.465 3.65 42.092l2.001 1.406 37.792.152c42.184.171 40.413.33 43.284-3.902l1.351-1.992v-37.159c0-40.24.123-38.672-3.264-41.789l-1.592-1.465-38.488-.151c-37.58-.148-38.533-.124-40.427 1.02z" fill="#000"/></svg>