<svg width="41" height="42" fill="none" xmlns="http://www.w3.org/2000/svg"><path d="M24.522 1.396h0l.006.005c4.484 3.903 9.327 5.83 14.841 5.83h.968v9.285c0 10.934-6.202 20.44-15.775 24.276l-.073.024-.071-.024a24.524 24.524 0 01-9.655-7.066l-.673-.81-.202 1.034-.245 1.255-1.02-4.371-.02-.085-.047-.073c-.433-.67-.79-1.344-1.154-2.072l-.242-.484-.463.279-3.467 2.085 2.168-4.072.306-.575-.635-.147-6.698-1.55 6.372-1.47.513-.119-.145-.506c-.062-.219-.097-.469-.135-.735a58.32 58.32 0 00-.014-.095l-.012-.087-.04-.077-1.81-3.419.808.427.733.386v-.829c0-.177-.01-.363-.02-.531v-.008a8.416 8.416 0 01-.02-.48V7.231h.886c5.138 0 9.773-1.717 14.093-5.207h0l.005-.003.85-.704.087.079zm-.303 39.024l.189.077.19-.077c9.456-3.875 15.312-12.996 15.312-23.823v-9.02h-.54c-5.42 0-10.199-1.788-14.64-5.549l-.303-.257-.32.239-.325.245-.009.006-.008.007c-4.401 3.6-9.101 5.309-14.32 5.309h-.5v9.02c0 .633.043 1.22.084 1.75l.021.275.243.13 2.08 1.1.574.304.147-.633 1.551-6.702 1.551 6.702.147.635.575-.307 4.22-2.246-2.246 4.22-.306.575.635.147 6.523 1.51-6.67 1.304-.662.129.317.596 2.337 4.405-4.37-2.622-.61-.367-.138.7-.815 4.157-.043.221.136.179a23.818 23.818 0 009.993 7.66z" stroke="#000"/><path d="M35.059 12.316v-.494l-.495-.006c-3.634-.037-6.866-1.232-9.855-3.747l.238-.27c2.952 2.464 6.166 3.713 9.775 3.713h.641v6.471c0 7.377-4.09 13.818-10.43 16.585l-.128-.33c6.336-2.753 10.254-8.941 10.254-16.255v-5.667z" stroke="#000"/></svg>