<svg width="29" height="22" fill="none" xmlns="http://www.w3.org/2000/svg"><path d="M18.148 21.05l-.002.01c.002-.002.002-.002.005-.002.006.002.007.002.007.006l.005-.01c15.923-3.902 10.032-16.493 3.105-11.622-3.564-7.68-14.96.278-3.12 11.619z" fill="#000"/><path d="M11.381 19.41v.013l.011-.007c.006.003.011.005.012.007v-.013a32.09 32.09 0 002.008-1.208C10.246 13.415 10.98 9.9 11.583 8.4c.935-2.329 3.031-3.833 5.34-3.833 1.938 0 3.655 1.007 4.857 2.808l.017-.006c.59-6.05-5.825-9.635-10.406-4.155-7.31-8.748-19.358 5.574-.01 16.196z" fill="#000"/></svg>