<svg width="12" height="12" viewBox="0 0 12 12" fill="none" xmlns="http://www.w3.org/2000/svg">
<path d="M6 0C2.68629 0 0 2.68629 0 6C0 9.31371 2.68629 12 6 12C9.31371 12 12 9.31371 12 6C12 2.68629 9.31371 0 6 0ZM3.84375 2.3833C3.96737 2.37601 4.07911 2.4499 4.16382 2.58105L4.98413 4.13671C5.0705 4.32105 5.02142 4.51843 4.89258 4.65014L4.51685 5.02587C4.49366 5.05765 4.4784 5.09344 4.47803 5.1328C4.62212 5.69055 5.0592 6.20503 5.44484 6.55883C5.83046 6.91263 6.24493 7.39164 6.78296 7.50512C6.84946 7.52367 6.93093 7.53032 6.97852 7.48609L7.41504 7.04151C7.56572 6.9273 7.7837 6.87195 7.94458 6.96534H7.9519L9.43211 7.83912C9.64939 7.97531 9.6719 8.23856 9.51634 8.39869L8.49683 9.41016C8.34627 9.56456 8.14625 9.61647 7.95192 9.6167C7.09244 9.59095 6.28034 9.16911 5.6133 8.7356C4.5184 7.93907 3.51407 6.95114 2.88355 5.75757C2.64173 5.25707 2.35766 4.61847 2.38477 4.05983C2.38719 3.84967 2.44405 3.64378 2.59205 3.50832L3.61158 2.48879C3.691 2.42121 3.76957 2.38768 3.84375 2.3833Z" fill="#454545"/>
</svg>
