<svg width="12" height="12" fill="none" xmlns="http://www.w3.org/2000/svg"><path d="M7.133 5.778a2.037 2.037 0 00-.493-.231 6.482 6.482 0 00-.636-.172 9.447 9.447 0 01-.398-.1 1.19 1.19 0 01-.232-.093.522.522 0 01-.172-.134.27.27 0 01-.057-.173c0-.11.058-.203.178-.284.124-.084.293-.126.499-.126.223 0 .384.038.48.113.1.078.187.189.259.33.062.11.118.186.172.234.058.053.141.08.248.08a.388.388 0 00.296-.127.409.409 0 00.118-.286.73.73 0 00-.09-.337 1.062 1.062 0 00-.28-.324 1.457 1.457 0 00-.475-.244 2.209 2.209 0 00-.672-.092c-.322 0-.606.046-.845.138-.242.092-.43.227-.56.4a.979.979 0 00-.195.6c0 .234.063.433.186.592.122.157.289.283.495.373.203.088.456.166.755.232.22.047.397.093.528.135.125.04.23.099.308.174a.37.37 0 01.11.282c0 .148-.07.268-.212.37-.147.103-.343.154-.58.154a.958.958 0 01-.419-.076.643.643 0 01-.241-.191 1.502 1.502 0 01-.165-.303.681.681 0 00-.17-.254.37.37 0 00-.253-.09.42.42 0 00-.301.114.38.38 0 00-.12.28c0 .174.062.355.184.535.122.181.281.326.475.434.27.147.618.222 1.031.222.345 0 .647-.055.9-.163a1.32 1.32 0 00.585-.456 1.15 1.15 0 00.202-.662c0-.203-.04-.38-.118-.522a1.005 1.005 0 00-.325-.352zM5.865.24a5.625 5.625 0 100 11.25 5.625 5.625 0 000-11.25zm1.348 8.774c-.285 0-.554-.073-.79-.204-.173.034-.35.051-.527.05-1.59 0-2.879-1.327-2.879-2.962 0-.205.02-.404.059-.597a1.738 1.738 0 01-.23-.867c0-.95.748-1.72 1.67-1.72.327 0 .63.098.889.265a2.78 2.78 0 01.491-.044c1.591 0 2.88 1.327 2.88 2.963 0 .218-.023.43-.066.636.11.23.173.488.173.763 0 .948-.747 1.717-1.67 1.717z" fill="#454545"/></svg>