<svg width="12" height="12" fill="none" xmlns="http://www.w3.org/2000/svg"><path d="M6 0a6 6 0 100 12A6 6 0 006 0zM3.844 2.383c.123-.007.235.067.32.198l.82 1.556a.451.451 0 01-.091.513l-.376.376a.184.184 0 00-.039.107c.144.558.581 1.072.967 1.426.385.354.8.833 1.338.946.066.019.148.025.196-.019l.436-.444c.15-.115.369-.17.53-.077h.007l1.48.874c.217.136.24.4.084.56L8.496 9.41a.739.739 0 01-.544.207c-.86-.026-1.672-.448-2.339-.881-1.095-.797-2.099-1.785-2.73-2.978-.241-.5-.525-1.14-.498-1.698.002-.21.06-.416.207-.552l1.02-1.02a.399.399 0 01.232-.105z" fill="#454545"/></svg>