<svg width="5" height="10" fill="none" xmlns="http://www.w3.org/2000/svg"><path d="M4.318 8.017a.135.135 0 00-.17-.046c-.665.315-1.42.648-1.568.677a.131.131 0 01-.018-.02.177.177 0 01-.03-.108c0-.377.284-1.521.845-3.403.472-1.58.527-1.908.527-2.017a.513.513 0 00-.186-.41c-.116-.095-.277-.143-.48-.143-.337 0-.728.128-1.195.391-.452.256-.957.688-1.5 1.286a.135.135 0 00.152.216c.19-.078 1.148-.47 1.287-.558a.587.587 0 01.302-.107 1.022 1.022 0 01-.048.315C1.42 6.732 1.023 8.352 1.023 9.043c0 .243.068.44.202.582.136.146.319.22.545.22.24 0 .533-.1.895-.307.35-.2.885-.64 1.634-1.346a.135.135 0 00.019-.175zM4.292.36a.682.682 0 00-.507-.205c-.253 0-.473.1-.655.297a1.01 1.01 0 00-.269.707c0 .217.067.398.198.535.134.14.302.211.5.211.243 0 .462-.105.651-.313.186-.205.28-.445.28-.715a.713.713 0 00-.198-.516z" fill="#B7B7B7"/></svg>