<svg width="26" height="26" fill="none" xmlns="http://www.w3.org/2000/svg"><path d="M13 2.751c3.34 0 3.735.015 5.049.073 1.22.054 1.88.259 2.32.43.58.225 1 .498 1.435.933.44.439.708.854.932 1.435.171.44.376 1.104.43 2.32.059 1.318.073 1.713.073 5.048 0 3.34-.014 3.736-.073 5.05-.054 1.22-.259 1.879-.43 2.318a3.864 3.864 0 01-.932 1.436 3.85 3.85 0 01-1.436.933c-.44.17-1.103.375-2.32.43-1.317.058-1.713.073-5.048.073-3.34 0-3.735-.015-5.049-.074-1.22-.053-1.88-.258-2.32-.43a3.865 3.865 0 01-1.435-.932 3.844 3.844 0 01-.932-1.436c-.171-.44-.376-1.103-.43-2.319-.059-1.318-.073-1.714-.073-5.049 0-3.34.014-3.735.073-5.049.054-1.22.259-1.88.43-2.319a3.866 3.866 0 01.932-1.435 3.85 3.85 0 011.436-.933c.44-.171 1.103-.376 2.32-.43C9.264 2.766 9.66 2.751 13 2.751zM13 .5C9.606.5 9.182.515 7.849.573c-1.328.059-2.242.274-3.033.581A6.1 6.1 0 002.6 2.6a6.125 6.125 0 00-1.446 2.212c-.307.795-.522 1.704-.58 3.032C.513 9.182.5 9.606.5 13c0 3.394.015 3.818.073 5.151.059 1.329.274 2.242.581 3.033A6.101 6.101 0 002.6 23.4a6.11 6.11 0 002.212 1.44c.795.308 1.704.523 3.032.582 1.333.058 1.758.073 5.151.073 3.394 0 3.819-.015 5.152-.073 1.328-.059 2.24-.274 3.032-.581a6.11 6.11 0 002.212-1.44 6.11 6.11 0 001.44-2.212c.308-.796.523-1.705.581-3.033.059-1.333.073-1.758.073-5.151 0-3.394-.014-3.818-.073-5.151-.058-1.329-.273-2.242-.58-3.033A5.856 5.856 0 0023.4 2.6a6.11 6.11 0 00-2.211-1.44c-.796-.308-1.705-.523-3.033-.582C16.818.515 16.394.5 13 .5z" fill="#272727"/><path d="M13 6.58A6.422 6.422 0 006.58 13 6.423 6.423 0 0013 19.42 6.423 6.423 0 0019.42 13 6.423 6.423 0 0013 6.58zm0 10.585a4.166 4.166 0 11.001-8.331A4.166 4.166 0 0113 17.165zm8.174-10.84a1.5 1.5 0 11-2.999 0 1.5 1.5 0 012.999 0z" fill="#272727"/></svg>