<svg width="18" height="18" fill="none" xmlns="http://www.w3.org/2000/svg"><path opacity=".9" fill-rule="evenodd" clip-rule="evenodd" d="M16.086 7.746a1.17 1.17 0 011.163 1.181c0 .666-.526 1.187-1.163 1.187h-.519c.64 0 1.158.534 1.158 1.187s-.522 1.187-1.158 1.187h-.644c.639 0 1.158.529 1.158 1.187 0 .638-.501 1.182-1.158 1.182h-.644c.639 0 1.163.534 1.163 1.187 0 .645-.51 1.186-1.163 1.186h-3.81c-1.474 0-2.512-.292-3.625-.606-.42-.118-.849-.24-1.316-.349a.257.257 0 01-.192-.247V7.643c0-.203.362-.429.885-.753.996-.62 2.577-1.604 3.347-3.498l.698-1.7a1.346 1.346 0 011.245-.846c.748 0 1.354.615 1.354 1.38v1.468a5.871 5.871 0 01-1.157 3.512l-.399.54h4.777zm-13.343-.79H4.04c.143 0 .259.115.259.256v9.242a.258.258 0 01-.26.256H2.744c-1.146 0-2.075-.918-2.075-2.05V9.006c0-1.132.929-2.05 2.075-2.05z" fill="#000"/></svg>