<svg width="300" height="300" fill="none" xmlns="http://www.w3.org/2000/svg"><path fill-rule="evenodd" clip-rule="evenodd" d="M21.414 1.31C6.474 6.128-2.933 26.427.839 45.714 2.2 52.68 5.01 58.99 8.874 63.754c3.717 4.582 5.908 6.302 10.996 8.628 3.12 1.426 7.29 1.473 130.416 1.473h127.191l3.47-1.76c5.127-2.602 7.92-5.014 11.279-9.746 3.42-4.816 5.672-10.25 6.943-16.753 3.784-19.35-5.736-39.57-20.867-44.321-5.486-1.723-251.54-1.688-256.888.035zm-.803 113.178c-7.156 2.566-13.92 9.606-17.282 17.983-8.5 21.177.026 46.966 17.533 53.04 2.926 1.015 19.535 1.165 129.13 1.165 137.736 0 128.899.293 135.647-4.512 4.332-3.085 9.18-9.831 11.412-15.883 7.755-21.023-.853-45.908-17.928-51.832-4.913-1.705-253.757-1.667-258.512.039zm3.008 112.046C13.015 228.378 3.675 239.738.84 254.245c-3.847 19.672 5.933 40.181 21.217 44.495 5.951 1.68 249.922 1.68 255.873 0 15.284-4.314 25.064-24.823 21.217-44.495-2.906-14.862-12.105-25.813-23.312-27.752-5.165-.894-247.062-.854-252.215.041z" fill="#000"/></svg>