<svg width="40" height="19" fill="none" xmlns="http://www.w3.org/2000/svg"><path opacity=".9" d="M38.467 1.603a.801.801 0 00-.907.364c-.55.908-2.009 1.912-3.013 2.512-.235-.705-.527-1.864-.737-2.86a.8.8 0 00-.697-.64.823.823 0 00-.826.47c-1.175 2.584-5.662 2.778-7.015 2.778-.405 0-.664-.016-.753-.016-2.528.073-4.059 1.24-4.901 2.43-.842-1.19-2.39-2.357-4.974-2.43-.008 0-.267.016-.672.016-1.353 0-5.84-.194-7.015-2.778a.792.792 0 00-.761-.47.807.807 0 00-.737.527c-.235.64-.673 1.87-.956 2.86-.988-.608-2.3-1.548-2.82-2.399a.801.801 0 00-.906-.364.805.805 0 00-.6.778c0 .178.025 4.382 1.839 8.634 1.175 2.73 3.11 4.942 5.476 6.221.397.22 1.012.51 1.814.746a9.84 9.84 0 002.876.421c2.09 0 4.998-.664 7.436-3.67 2.446 3.006 5.354 3.67 7.444 3.67 2.22 0 3.888-.73 4.69-1.166 2.357-1.28 4.302-3.492 5.476-6.221 1.814-4.253 1.83-8.457 1.83-8.635a.807.807 0 00-.59-.778zM16.994 12.028a7.475 7.475 0 01-4.31 1.36 7.533 7.533 0 01-6.164-3.207.814.814 0 01.202-1.126 7.474 7.474 0 014.31-1.36 7.518 7.518 0 016.156 3.207c.13.17.178.389.138.6a.799.799 0 01-.332.526zm15.722-1.847a7.518 7.518 0 01-6.156 3.208 7.475 7.475 0 01-4.31-1.361.77.77 0 01-.331-.527.783.783 0 01.129-.599 7.533 7.533 0 016.164-3.208c1.547 0 3.038.47 4.31 1.361a.8.8 0 01.194 1.126z" fill="#000"/></svg>