<svg width="28" height="38" fill="none" xmlns="http://www.w3.org/2000/svg"><path d="M24.497 36.534h0l-21.181-.01s0 0 0 0A2.376 2.376 0 01.937 34.15V3.854a2.38 2.38 0 012.379-2.379h16.717l-.334.712a1.392 1.392 0 00-.137.595v4.781c0 .782.634 1.416 1.416 1.416h4.782c.2 0 .386-.039.553-.11l.697-.296-.001.757-.041 24.977-2.471 2.227zm0 0c1.224 0 2.47-.836 2.47-2.226l-2.47 2.226zM27.274 7.38c.03.03.045.069.045.109 0 0 0 0 0 0l.064 26.8s0 0 0 0c0 1.446-1.239 2.555-2.775 2.555H3.316A2.696 2.696 0 01.617 34.15V3.854a2.699 2.699 0 012.699-2.699h17.931c.041 0 .084.017.116.05l5.911 6.175zm0 0s0 0 0 0l-5.911-6.174 5.911 6.174zM21.1 1.878l-.238-.238-.31.13a1.096 1.096 0 00-.67 1.011v4.781c0 .605.49 1.096 1.096 1.096h4.782c.456 0 .846-.279 1.01-.674l.13-.31-.237-.236-5.563-5.56z" fill="#fff" stroke="#272727"/><path d="M20.21 13.981H5.734a.773.773 0 010-1.545H20.21a.772.772 0 010 1.545zm0 5.866H5.734a.773.773 0 010-1.544H20.21a.772.772 0 010 1.544zm-7.096 4.747h.003a.772.772 0 010 1.544s0 0 0 0l-7.38-.035h0-.003a.773.773 0 010-1.545s0 0 0 0l7.38.036zm8.913 4.718v0a1.797 1.797 0 11-3.594-.002 1.797 1.797 0 013.594.002zm-5.199.29a3.453 3.453 0 01.15-1.356.368.368 0 00-.264.276l.114 1.08zm0 0a.389.389 0 01-.194-.334c0-.251.028-.5.08-.745l.114 1.079zm6.132 1.765c.25-.328.444-.704.563-1.11.044.091.05.194.014.286a3.69 3.69 0 01-.341.668l-.236.157zm0 0a.358.358 0 00.235-.156l-.235.157zm.784-2.536h0a.36.36 0 01-.089.285 3.397 3.397 0 00-.302-1.237.357.357 0 01.224.22h0c.082.234.137.48.167.732zm-1.121-2.186a.36.36 0 01.11.31c-.3-.32-.661-.581-1.064-.767a.363.363 0 01.35.008l.003.001c.213.126.415.277.6.448h0zm-2.269-.943c.128.005.243.08.307.198a3.47 3.47 0 00-1.325.094.365.365 0 01.286-.25h.001a3.59 3.59 0 01.731-.042zm-2.329.737a.365.365 0 01.381-.035 3.44 3.44 0 00-.978.935.363.363 0 01.053-.378l.002-.003a3.6 3.6 0 01.542-.519zm-1.019 4.418a.385.385 0 01.019-.376c.158.426.398.813.701 1.14a.367.367 0 01-.317-.133 3.582 3.582 0 01-.403-.631h0zm1.782 1.686a.358.358 0 01-.207-.252c.372.206.785.344 1.225.4a.365.365 0 01-.302.075l-.098.49.099-.49a3.558 3.558 0 01-.717-.223h0zm2.443.14a.364.364 0 01-.295-.038 3.406 3.406 0 001.163-.479.363.363 0 01-.176.229c-.22.12-.451.217-.692.289h0zm-.858-7.48l-.001-.001c-.056-.002-.112-.004-.169-.004-.222 0-.444.017-.661.053l.831-.049z" fill="#fff" stroke="#272727"/></svg>