<svg width="25" height="27" fill="none" xmlns="http://www.w3.org/2000/svg"><path d="M23.774 10.02c-.919-1.436-5.212-2.112-8.461-2.197.618-.275 1.085-.491 1.085-.491l-1.154-1.66 2.492 1.033s.278-.807 4.065-.946c1.476-.054-2.063-4.183-5.07-3.313-.578.167-3.118 1.896-4.755 3.463C11.714 3.533 10.396.642 8.94.945c-1.894.395-4.26 1.07-3.55 1.895.38.442 1.814 2.518 3.26 4.039-2.335-.844-5.194-1.503-6.192-.861C.943 6.99.587 9.944.705 10.963.824 11.984 2.93 8.481 2.93 8.481l.311 2.718s3.56-.174 4.515-.39c.302-.069.704-.128 1.126-.177-1.966 2.036-4.303 5.719-4.473 6.502-.237 1.092.71 3.138 1.735 4.64 1.026 1.502 2.605-2.759 2.92-3.627.316-.868-.756-2.999-.756-2.999l2.098 1.342s1.472-3.525 1.763-4.763l.004-.018c.381.617.631 1.41.778 2.315.118.728.17 1.525.175 2.354.004.676-.024 1.373-.075 2.07a40.967 40.967 0 01-.375 3.228 56.67 56.67 0 01-.877 4.454h2.245a27.631 27.631 0 001.017-9.818 24.15 24.15 0 00-.315-2.447 16.313 16.313 0 00-.547-2.196c.581.189 1.134.414 1.49.687l4.671 3.582 1.677-3.155s.71 5.364 1.342 4.18c.632-1.184 1.658-4.971.395-6.944z" fill="#000"/></svg>