<svg width="28" height="26" fill="none" xmlns="http://www.w3.org/2000/svg"><path d="M14.217 16.157a1 1 0 00-1.414 1.414l1.414-1.414zm3.324 6.152a1 1 0 101.414-1.414l-1.414 1.414zm-4.738-4.738l4.738 4.738 1.414-1.414-4.738-4.738-1.414 1.414zM3 12.32a6.717 6.717 0 006.717 6.717v-2A4.717 4.717 0 015 12.32H3zm6.717 6.717a6.717 6.717 0 006.718-6.717h-2a4.717 4.717 0 01-4.718 4.717v2zm6.718-6.717a6.717 6.717 0 00-6.718-6.718v2a4.717 4.717 0 014.718 4.718h2zM9.717 5.602A6.717 6.717 0 003 12.32h2a4.717 4.717 0 014.717-4.718v-2z" fill="#000"/></svg>