<svg width="21" height="20" viewBox="0 0 21 20" fill="none" xmlns="http://www.w3.org/2000/svg">
<path fill-rule="evenodd" clip-rule="evenodd" d="M14.8257 12.899L20.2057 18.279C20.3948 18.4682 20.501 18.7248 20.5009 18.9923C20.5008 19.2599 20.3945 19.5164 20.2052 19.7055C20.016 19.8946 19.7594 20.0008 19.4919 20.0007C19.2244 20.0006 18.9678 19.8942 18.7787 19.705L13.3987 14.325C11.7905 15.5707 9.76802 16.1569 7.74287 15.9643C5.71772 15.7718 3.84198 14.815 2.49723 13.2886C1.15248 11.7622 0.439735 9.7808 0.503996 7.74753C0.568258 5.71427 1.4047 3.78185 2.84315 2.34339C4.2816 0.904939 6.21402 0.0685019 8.24729 0.00424047C10.2806 -0.0600209 12.2619 0.652721 13.7884 1.99747C15.3148 3.34222 16.2716 5.21796 16.4641 7.24312C16.6566 9.26827 16.0704 11.2907 14.8247 12.899H14.8257ZM8.50074 14C10.092 14 11.6182 13.3678 12.7434 12.2426C13.8686 11.1174 14.5007 9.59129 14.5007 7.99999C14.5007 6.40869 13.8686 4.88257 12.7434 3.75735C11.6182 2.63213 10.092 1.99999 8.50074 1.99999C6.90944 1.99999 5.38332 2.63213 4.2581 3.75735C3.13289 4.88257 2.50074 6.40869 2.50074 7.99999C2.50074 9.59129 3.13289 11.1174 4.2581 12.2426C5.38332 13.3678 6.90944 14 8.50074 14Z" fill="#737373"/>
</svg>
