<svg width="26" height="24" fill="none" xmlns="http://www.w3.org/2000/svg"><path d="M20.459 23.181a.99.99 0 01-.556-.17l-6.286-4.265-3.371 2.426a.99.99 0 01-1.535-.55l-1.693-6.416L.97 11.893a.99.99 0 01-.012-1.844l23-9.151a.99.99 0 011.356 1.11l-3.882 20.369a.99.99 0 01-.972.804zm-6.29-6.452l5.6 3.798 3.02-15.85-10.91 10.499 2.264 1.535.026.018zm-4.66-.844l.749 2.84 1.615-1.162-2.115-1.435a.987.987 0 01-.25-.243zM4.045 10.95l4.153 1.588a.99.99 0 01.603.672l.527 1.996a.99.99 0 01.298-.61L20.023 4.593 4.046 10.95z" fill="#272727"/></svg>