<svg width="26" height="26" fill="none" xmlns="http://www.w3.org/2000/svg"><path fill-rule="evenodd" clip-rule="evenodd" d="M25.51 13c0 6.904-5.597 12.5-12.5 12.5C6.105 25.5.51 19.904.51 13S6.106.5 13.01.5c6.903 0 12.5 5.596 12.5 12.5zM13.456 9.728c-1.215.506-3.645 1.552-7.29 3.14-.591.235-.901.466-.93.69-.047.381.43.53 1.078.735.088.028.18.056.274.087.638.207 1.496.45 1.943.46.405.008.856-.159 1.355-.501 3.405-2.298 5.162-3.46 5.273-3.485.078-.018.186-.04.259.025.073.065.066.188.058.221-.047.201-1.917 1.94-2.885 2.84-.302.28-.516.479-.56.524a9.936 9.936 0 01-.293.29c-.593.572-1.038 1.001.024 1.701.51.336.92.615 1.327.892.445.303.889.605 1.463.982.146.096.286.195.422.292.518.37.983.701 1.558.648.334-.03.68-.344.854-1.281.414-2.214 1.228-7.01 1.416-8.987a2.207 2.207 0 00-.02-.492.527.527 0 00-.178-.339c-.15-.121-.381-.147-.485-.145-.47.008-1.191.26-4.663 1.703z" fill="#272727"/></svg>