<svg width="28" height="23" fill="none" xmlns="http://www.w3.org/2000/svg"><path d="M24.167 10.205a.311.311 0 00-.373 0 6.328 6.328 0 01-3.688 1.201 6.327 6.327 0 01-3.687-1.201.311.311 0 00-.373 0c-.83.538-1.492 1.243-2.072 2.072 2.03 1.74 3.273 4.516 3.48 7.873 4.517.331 10.36-.207 10.36-1.74 0-3.564-1.202-6.63-3.647-8.205zm-4.061-.415a4.6 4.6 0 100-9.2 4.6 4.6 0 000 9.2zm-7.914 3.15a.31.31 0 00-.373 0 6.328 6.328 0 01-3.688 1.202 6.328 6.328 0 01-3.688-1.202.31.31 0 00-.373 0C1.625 14.515.423 17.581.423 21.145c0 2.445 15.457 2.445 15.457 0-.042-3.523-1.244-6.63-3.688-8.205zm-4.062-.416a4.6 4.6 0 100-9.199 4.6 4.6 0 000 9.2z" opacity=".9" fill="#000"/></svg>