<svg width="22" height="27" fill="none" xmlns="http://www.w3.org/2000/svg"><path d="M.727 24.91a1.319 1.319 0 001.3 1.518h17.86a1.319 1.319 0 001.301-1.518 10.392 10.392 0 00-3.88-6.62 1.315 1.315 0 00-1.635 0 7.572 7.572 0 01-9.42 0 1.315 1.315 0 00-1.635 0 10.392 10.392 0 00-3.891 6.62zM6.003 1.434a1.217 1.217 0 00-1.218 1.218v3.427a1.573 1.573 0 001.363 1.555 35.62 35.62 0 009.62 0 1.573 1.573 0 001.362-1.555V2.655a1.22 1.22 0 00-2.439 0v1.116a1.218 1.218 0 01-1.217 1.218h-.08a1.217 1.217 0 01-1.217-1.218V1.568a1.22 1.22 0 00-2.439 0v2.203A1.217 1.217 0 018.521 4.99h-.076a1.217 1.217 0 01-1.218-1.22V2.655a1.217 1.217 0 00-1.224-1.22z" fill="#000"/><path d="M10.956 18.214A6.16 6.16 0 0016.39 9.12a43.426 43.426 0 01-10.87 0 6.16 6.16 0 005.435 9.094z" fill="#000"/></svg>