<svg width="22" height="27" viewBox="0 0 22 27" fill="none" xmlns="http://www.w3.org/2000/svg">
<path d="M0.726935 24.9103C0.698256 25.0979 0.71041 25.2895 0.762565 25.472C0.81472 25.6545 0.905649 25.8236 1.02914 25.9677C1.15263 26.1118 1.30577 26.2276 1.47811 26.3071C1.65045 26.3867 1.83792 26.428 2.02772 26.4285H19.8872C20.077 26.428 20.2645 26.3867 20.4368 26.3071C20.6091 26.2276 20.7623 26.1118 20.8858 25.9677C21.0093 25.8236 21.1002 25.6545 21.1523 25.472C21.2045 25.2895 21.2167 25.0979 21.188 24.9103C20.7863 22.2894 19.3981 19.9212 17.3074 18.2904C17.0749 18.1061 16.787 18.0059 16.4903 18.0059C16.1937 18.0059 15.9057 18.1061 15.6732 18.2904C14.3338 19.3545 12.6735 19.9337 10.9629 19.9337C9.25225 19.9337 7.59199 19.3545 6.25254 18.2904C6.02007 18.1061 5.73213 18.0059 5.43548 18.0059C5.13882 18.0059 4.85088 18.1061 4.61841 18.2904C2.52364 19.9193 1.13133 22.2878 0.726935 24.9103Z" fill="black"/>
<path d="M6.0026 1.43431C5.67971 1.43431 5.37005 1.56258 5.14174 1.7909C4.91342 2.01921 4.78516 2.32887 4.78516 2.65176V6.07945C4.78613 6.45941 4.92464 6.82618 5.17509 7.11193C5.42553 7.39768 5.77097 7.58308 6.14754 7.63386C9.33942 8.0693 12.5756 8.0693 15.7675 7.63386C16.1441 7.58308 16.4895 7.39768 16.74 7.11193C16.9904 6.82618 17.1289 6.45941 17.1299 6.07945V2.65538C17.1299 2.33201 17.0014 2.02189 16.7728 1.79324C16.5441 1.56458 16.234 1.43613 15.9106 1.43613C15.5873 1.43613 15.2772 1.56458 15.0485 1.79324C14.8198 2.02189 14.6914 2.33201 14.6914 2.65538V3.77137C14.6914 4.09426 14.5631 4.40392 14.3348 4.63224C14.1065 4.86055 13.7968 4.98882 13.4739 4.98882H13.3942C13.0713 4.98882 12.7617 4.86055 12.5334 4.63224C12.3051 4.40392 12.1768 4.09426 12.1768 3.77137V1.56838C12.1768 1.24501 12.0483 0.934888 11.8197 0.706233C11.591 0.477578 11.2809 0.349121 10.9575 0.349121C10.6342 0.349121 10.324 0.477578 10.0954 0.706233C9.86673 0.934888 9.73827 1.24501 9.73827 1.56838V3.77137C9.73827 4.09426 9.61001 4.40392 9.38169 4.63224C9.15338 4.86055 8.84371 4.98882 8.52083 4.98882H8.44474C8.12185 4.98882 7.81219 4.86055 7.58387 4.63224C7.35556 4.40392 7.22729 4.09426 7.22729 3.77137V2.65538C7.22777 2.49459 7.1964 2.33529 7.13498 2.18669C7.07356 2.03809 6.98331 1.90313 6.86944 1.7896C6.75557 1.67607 6.62034 1.58622 6.47156 1.52524C6.32278 1.46426 6.16339 1.43336 6.0026 1.43431Z" fill="black"/>
<path d="M10.9557 18.2142C12.0245 18.2176 13.0758 17.9428 14.0063 17.4169C14.9367 16.8909 15.7143 16.1319 16.2626 15.2144C16.8109 14.2969 17.1111 13.2526 17.1335 12.184C17.156 11.1154 16.9 10.0593 16.3907 9.11963C12.7817 9.5749 9.1297 9.5749 5.52066 9.11963C5.01139 10.0593 4.7554 11.1154 4.77785 12.184C4.8003 13.2526 5.10043 14.2969 5.64872 15.2144C6.19702 16.1319 6.97461 16.8909 7.90508 17.4169C8.83554 17.9428 9.88685 18.2176 10.9557 18.2142Z" fill="black"/>
</svg>
