<svg width="26" height="18" fill="none" xmlns="http://www.w3.org/2000/svg"><path d="M25.26 4.002s-.244-1.723-.996-2.48C23.312.526 22.248.521 21.76.462 18.264.208 13.014.208 13.014.208h-.01s-5.248 0-8.744.254c-.489.059-1.553.064-2.505 1.06-.752.757-.992 2.48-.992 2.48S.51 6.03.51 8.05v1.895c0 2.021.249 4.048.249 4.048s.244 1.723.99 2.48c.953.996 2.203.962 2.76 1.07 2.002.19 8.5.248 8.5.248s5.254-.01 8.75-.258c.489-.059 1.553-.064 2.505-1.06.752-.757.997-2.48.997-2.48s.248-2.022.248-4.048V8.05c0-2.021-.248-4.048-.248-4.048zm-14.834 8.243V5.218l6.753 3.526-6.752 3.5z" fill="#272727"/></svg>