<svg width="140" height="23" fill="none" xmlns="http://www.w3.org/2000/svg"><path d="M3.91.942H2.27v4.27h-.49V.942H.139v-.41h3.77v.41zm1.762 1.229a1.45 1.45 0 00-.82.254c-.224.163-.39.392-.475.656v2.131h-.418V1.778h.418v.82c.123-.25.31-.462.541-.615.2-.144.442-.221.689-.222h.09l-.025.41zm1.582 3.148a1.164 1.164 0 01-.45-.082 1.074 1.074 0 01-.607-.566 1.024 1.024 0 01-.082-.418.82.82 0 01.106-.418.926.926 0 01.336-.369c.137-.097.29-.169.451-.213.19-.05.386-.076.582-.074a3.99 3.99 0 01.533 0c.165.027.327.071.484.131v-.262a1.016 1.016 0 00-.255-.721.943.943 0 00-.754-.287c-.185 0-.37.036-.54.107a2.385 2.385 0 00-.566.303l-.156-.295a2.295 2.295 0 011.295-.451c.373-.02.739.11 1.017.36a1.344 1.344 0 01.368 1.017v1.55c0 .122.05.188.164.188v.393l-.164.025a.402.402 0 01-.27-.09.295.295 0 01-.098-.238v-.27a1.498 1.498 0 01-.599.475c-.245.13-.517.2-.795.205zm.123-.386c.22.004.438-.041.64-.13a1.02 1.02 0 00.426-.304.344.344 0 00.09-.131.279.279 0 000-.131v-.558a2.795 2.795 0 00-.96-.18 1.377 1.377 0 00-.737.18.606.606 0 00-.279.5.738.738 0 00.238.533.68.68 0 00.254.164c.105.04.216.059.328.057zm3.705.279L9.688 1.778h.46l1.18 3.024 1.188-3.024h.435l-1.402 3.434h-.467zm4.016.107a1.697 1.697 0 01-.688-.14 1.533 1.533 0 01-.541-.393 1.703 1.703 0 01-.36-.566 1.788 1.788 0 01-.132-.696 1.737 1.737 0 01.131-.68 1.697 1.697 0 01.902-.943 1.754 1.754 0 011.369 0 1.639 1.639 0 01.885.95c.09.213.135.442.131.673v.106a.449.449 0 010 .066h-2.95a1.5 1.5 0 00.13.516c.07.15.164.285.28.402.112.114.246.205.393.27.147.063.306.094.467.09.111.016.224.016.336 0a1.85 1.85 0 00.303-.123c.09-.056.171-.122.246-.196a.99.99 0 00.172-.254l.394.106a1.325 1.325 0 01-.23.344c-.097.108-.21.2-.336.271a1.953 1.953 0 01-.418.18c-.16.026-.322.032-.484.017zm1.295-2a1.288 1.288 0 00-.122-.509 1.493 1.493 0 00-.28-.393 1.213 1.213 0 00-.417-.254 1.196 1.196 0 00-.951 0 1.23 1.23 0 00-.393.254c-.11.117-.2.25-.27.393a1.713 1.713 0 00-.124.509h2.557zM17.672.4h.443v4.033a.444.444 0 00.106.304.4.4 0 00.304.106h.164l.163-.074.082.37a2.115 2.115 0 01-.311.081 1.55 1.55 0 01-.312 0 .689.689 0 01-.491-.172.664.664 0 01-.172-.492l.024-4.155zm3.336 3.083c.002-.233.046-.464.131-.68a1.69 1.69 0 01.353-.566 1.5 1.5 0 01.54-.377c.221-.094.458-.141.698-.14a1.59 1.59 0 01.82.222c.238.14.43.348.548.598l-.434.131a1.04 1.04 0 00-.41-.41 1.189 1.189 0 00-1.066 0c-.147.071-.28.168-.393.287a1.163 1.163 0 00-.262.435c-.067.172-.1.356-.099.54a1.515 1.515 0 00.37 1c.113.124.25.224.4.296a1.14 1.14 0 00.812.057c.104-.027.203-.069.295-.123.104-.07.195-.155.27-.254a.615.615 0 00.14-.23l.443.132c-.047.128-.12.245-.213.344-.092.11-.203.2-.328.27-.13.075-.267.136-.41.18a1.845 1.845 0 01-1.164-.081 1.639 1.639 0 01-.549-.394 1.851 1.851 0 01-.36-.565 1.95 1.95 0 01-.132-.672zm5.459 1.836a1.64 1.64 0 01-1.221-.525 1.851 1.851 0 01-.36-.565 1.918 1.918 0 01-.124-.68 1.772 1.772 0 01.131-.69c.082-.208.202-.4.353-.565.152-.164.336-.295.54-.385.214-.1.446-.15.681-.148a1.59 1.59 0 01.68.148c.205.09.39.221.542.385.15.165.27.357.352.566a1.921 1.921 0 01.008 1.368c-.082.21-.201.4-.352.566a1.83 1.83 0 01-.541.385c-.218.093-.452.14-.689.14zm-1.246-1.804c-.001.183.032.363.099.533.062.159.151.305.262.435.11.128.247.229.402.295.15.072.316.109.483.106.167.002.333-.034.484-.106a1.27 1.27 0 00.393-.279c.115-.131.206-.28.27-.443.074-.17.11-.355.107-.54a1.288 1.288 0 00-.106-.533 1.337 1.337 0 00-.27-.443 1.18 1.18 0 00-.394-.303 1.221 1.221 0 00-.484-.107 1.188 1.188 0 00-.483.107 1.27 1.27 0 00-.394.303 1.459 1.459 0 00-.369.992v-.017zm8.976 1.697h-.443V3.294a1.574 1.574 0 00-.197-.885.623.623 0 00-.565-.279.926.926 0 00-.369.074 1.05 1.05 0 00-.328.205 1.378 1.378 0 00-.426.705v2.098h-.45V3.294a1.64 1.64 0 00-.19-.885.624.624 0 00-.565-.279.983.983 0 00-.689.27 1.44 1.44 0 00-.434.714v2.098h-.45V1.778h.417v.82a1.64 1.64 0 01.55-.615c.226-.147.491-.224.762-.222a.992.992 0 01.696.246c.18.169.292.395.32.64a1.467 1.467 0 011.32-.886 1 1 0 01.492.107.82.82 0 01.327.295c.087.143.145.302.173.467.04.202.06.409.057.615l-.008 1.967zm2.869.107a1.37 1.37 0 01-.77-.222 1.73 1.73 0 01-.534-.598v2.123h-.45V1.778h.401v.664a1.77 1.77 0 01.55-.525c.22-.13.472-.199.729-.197a1.45 1.45 0 01.656.148c.195.097.37.23.516.393.154.177.277.38.36.599.082.211.124.437.124.664 0 .234-.04.466-.115.688a1.64 1.64 0 01-.811.95 1.451 1.451 0 01-.656.157zm-.123-.394a1.114 1.114 0 00.893-.435c.109-.13.192-.28.246-.442a1.5 1.5 0 00.082-.508c0-.18-.033-.358-.098-.525a1.337 1.337 0 00-.27-.442 1.213 1.213 0 00-.402-.303 1.18 1.18 0 00-.509-.156.935.935 0 00-.352.074 1.302 1.302 0 00-.631.45.762.762 0 00-.14.328v1.058c.048.121.114.235.197.336.082.103.176.196.279.278.102.076.216.137.336.18.118.044.243.066.369.066v.041zm3.467.394a1.164 1.164 0 01-.451-.082.967.967 0 01-.36-.23.918.918 0 01-.246-.336 1.026 1.026 0 01-.083-.418.82.82 0 01.074-.459.925.925 0 01.295-.328c.16-.105.338-.177.525-.213.19-.05.386-.076.582-.074a3.95 3.95 0 01.533 0c.165.027.327.071.483.131v-.262a.982.982 0 00-.254-.721.943.943 0 00-.754-.287c-.185 0-.37.036-.54.106a2.385 2.385 0 00-.566.304l-.156-.295a2.295 2.295 0 011.295-.451 1.41 1.41 0 011.016.377 1.346 1.346 0 01.37 1v1.55c0 .122.048.188.163.188v.393h-.172a.402.402 0 01-.27-.09.32.32 0 01-.09-.213v-.27a1.494 1.494 0 01-.6.475c-.244.13-.517.2-.794.205zm.106-.345c.22.004.439-.041.64-.13.178-.073.334-.192.45-.345a.442.442 0 00.082-.131.277.277 0 000-.131v-.558a2.792 2.792 0 00-.959-.18 1.377 1.377 0 00-.77.197.608.608 0 00-.295.524.737.737 0 00.238.533.68.68 0 00.254.164c.118.03.24.035.36.016v.041zm5.672.238h-.442V3.294a1.706 1.706 0 00-.18-.885.623.623 0 00-.558-.279c-.137 0-.273.026-.402.074a1.214 1.214 0 00-.36.205 1.368 1.368 0 00-.492.705v2.098h-.45V1.778h.41v.82a1.688 1.688 0 011.458-.82.95.95 0 01.476.106.82.82 0 01.32.295c.086.144.144.302.171.468.034.203.05.408.05.614v1.951zm1.246 1.058h.197a.6.6 0 00.189 0 .393.393 0 00.13-.132c.06-.104.11-.214.148-.327.058-.14.132-.328.238-.566l-1.5-3.467h.46l1.278 3.024 1.18-3.024h.426l-1.778 4.434a.819.819 0 01-.246.328.648.648 0 01-.451.148H47.4l.033-.418zM0 22.81V9.27h2.631v13.54H0zm8.082-8.672v8.673H5.451V9.27h2.04l7.058 8.893V9.294h2.664v13.517h-2.131l-7-8.673zm11.107 1.836a7.065 7.065 0 01.483-2.459 6.632 6.632 0 011.312-2.164 6.433 6.433 0 014.918-2.139 6.123 6.123 0 013.23.82 5.246 5.246 0 012.015 2.123l-2.049 1.36a3.403 3.403 0 00-.647-.959 3.28 3.28 0 00-.82-.623 3.665 3.665 0 00-.91-.328 4.1 4.1 0 00-.934-.106 3.524 3.524 0 00-1.73.402c-.477.255-.894.61-1.221 1.04-.322.443-.56.94-.705 1.468a5.312 5.312 0 000 3.344c.18.53.458 1.023.82 1.45.347.422.776.768 1.262 1.017.506.26 1.07.39 1.64.377a3.96 3.96 0 00.958-.114c.33-.077.647-.198.943-.361.303-.172.58-.387.82-.64a2.87 2.87 0 00.606-.942l2.156 1.238a4.098 4.098 0 01-.918 1.344c-.401.394-.86.726-1.36.983a6.66 6.66 0 01-1.64.615 7.085 7.085 0 01-1.68.205 5.795 5.795 0 01-2.648-.606 6.992 6.992 0 01-2.074-1.599 7.1 7.1 0 01-1.344-2.23 6.852 6.852 0 01-.483-2.516zm19.541 6.935a6.196 6.196 0 01-2.664-.582 6.49 6.49 0 01-2.074-1.55 6.778 6.778 0 01-1.344-2.196 6.991 6.991 0 01-.484-2.541 6.826 6.826 0 01.508-2.59c.328-.81.8-1.555 1.394-2.197a6.754 6.754 0 012.106-1.516 6.336 6.336 0 012.648-.558 5.91 5.91 0 012.68.599 6.714 6.714 0 012.074 1.573 7.227 7.227 0 011.336 2.214c.31.803.47 1.655.475 2.516a6.74 6.74 0 01-.5 2.582 6.927 6.927 0 01-1.369 2.172 6.696 6.696 0 01-2.098 1.508 6.223 6.223 0 01-2.688.566zm-3.927-6.869c-.002.576.09 1.15.27 1.697.164.527.426 1.02.771 1.45.337.42.759.764 1.238 1.009a3.5 3.5 0 001.64.385 3.541 3.541 0 001.688-.393 3.86 3.86 0 001.238-1.033c.336-.439.594-.932.762-1.46a5.49 5.49 0 000-3.352 4.918 4.918 0 00-.82-1.45 3.688 3.688 0 00-1.188-1.017 3.63 3.63 0 00-1.64-.369 3.549 3.549 0 00-1.696.394 3.699 3.699 0 00-1.246 1.024 4.506 4.506 0 00-.746 1.451 5.406 5.406 0 00-.27 1.664zm23.615 6.77v-8.958l-3.5 6.672h-1.426L50 13.85v8.96h-2.631V9.27h2.828l4 7.704 4.049-7.704h2.803v13.54h-2.63zm9.303-13.54h2.328l5.148 13.54h-2.705l-1.263-3.377H66.5l-1.238 3.378H62.55L67.721 9.27zm3.033 8.344l-1.901-5.345-1.91 5.345h3.811zm5.926 5.196V9.27h5.992c.6-.006 1.192.129 1.73.393a4.55 4.55 0 011.36 1.033c.382.423.684.912.894 1.442.215.52.327 1.077.328 1.64a4.525 4.525 0 01-.656 2.393 3.787 3.787 0 01-1.787 1.557l3.09 5.09h-2.959L81.91 18.27h-2.59v4.541h-2.64zm2.64-6.836h3.278a1.4 1.4 0 00.68-.172c.21-.118.394-.277.542-.467.16-.21.282-.445.36-.697a2.63 2.63 0 00.131-.86 2.335 2.335 0 00-.557-1.574 1.828 1.828 0 00-.59-.451 1.459 1.459 0 00-.68-.164H79.32v4.385zm19.967-4.393h-4.328v11.23h-2.615V11.58h-4.328V9.27h11.27v2.311zm6.828 11.328a6.228 6.228 0 01-2.705-.582 6.493 6.493 0 01-2.074-1.55A6.783 6.783 0 01100 18.582a6.984 6.984 0 01-.475-2.541 6.804 6.804 0 01.5-2.59 7.195 7.195 0 011.393-2.197 6.757 6.757 0 012.107-1.516 6.339 6.339 0 012.655-.558 5.89 5.89 0 012.672.599 6.708 6.708 0 012.074 1.573 7.21 7.21 0 011.336 2.213c.314.802.475 1.656.476 2.517a6.76 6.76 0 01-.5 2.582 6.922 6.922 0 01-1.369 2.172 6.61 6.61 0 01-2.098 1.508 6.214 6.214 0 01-2.656.566zm-3.935-6.869a5.32 5.32 0 00.271 1.697 4.57 4.57 0 00.77 1.45 3.9 3.9 0 001.238 1.009c.507.26 1.07.392 1.639.385a3.544 3.544 0 001.689-.393 3.785 3.785 0 001.238-1.033c.354-.435.628-.929.811-1.46a5.322 5.322 0 000-3.36 4.92 4.92 0 00-.82-1.45 3.688 3.688 0 00-1.237-1.009 3.634 3.634 0 00-1.64-.369 3.548 3.548 0 00-1.696.394 3.595 3.595 0 00-1.238 1.024 4.53 4.53 0 00-.754 1.451 5.408 5.408 0 00-.271 1.664zm18.312 4.541c.55.02 1.095-.113 1.574-.385a3.121 3.121 0 001.024-.992 4.11 4.11 0 00.558-1.402c.107-.54.159-1.089.155-1.639V9.27h2.615v6.91a9.52 9.52 0 01-.336 2.606 5.86 5.86 0 01-1.066 2.106 5.126 5.126 0 01-1.836 1.451 6.294 6.294 0 01-2.688.533 6.104 6.104 0 01-2.754-.566 5.182 5.182 0 01-1.845-1.418 5.923 5.923 0 01-1.016-2.147 9.972 9.972 0 01-.32-2.533V9.27h2.656v6.91c.001.55.056 1.099.164 1.639.098.497.287.973.557 1.401.258.403.606.74 1.017.984a3.01 3.01 0 001.541.377zm8.565-7.246a.957.957 0 01.082-.402.86.86 0 01.222-.32.936.936 0 01.336-.212c.134-.057.28-.085.426-.082.152-.002.303.03.443.09a.885.885 0 01.336.262c.104.124.179.27.221.426.052.184.077.375.074.566.004.237-.023.475-.082.705a1.5 1.5 0 01-.222.516 1.08 1.08 0 01-.36.312.985.985 0 01-.467.106 1.084 1.084 0 01-.509-.123 1.031 1.031 0 01-.393-.336l.311-.344a.716.716 0 00.599.328.53.53 0 00.442-.221 1.03 1.03 0 00.164-.615.539.539 0 01-.237.23.773.773 0 01-.369.09 1.108 1.108 0 01-.41-.074.936.936 0 01-.533-.517 1.036 1.036 0 01-.074-.385zm1.066-.55a.5.5 0 00-.385.164.61.61 0 00-.115.173.635.635 0 000 .213.543.543 0 000 .205.607.607 0 00.115.172c.048.05.107.09.172.115a.46.46 0 00.213.04.435.435 0 00.205-.04.525.525 0 00.287-.287.414.414 0 00.041-.205.473.473 0 00-.041-.213.498.498 0 00-.115-.172.644.644 0 00-.172-.123.574.574 0 00-.205-.041zm2.787.911a.69.69 0 01.418.246c.108.14.163.314.156.492a.776.776 0 01-.287.615 1.173 1.173 0 01-.336.163c-.144.042-.293.06-.443.058-.19.003-.38-.03-.557-.099a1.023 1.023 0 01-.402-.295l.311-.385a.763.763 0 00.255.205.882.882 0 00.377.074.608.608 0 00.377-.099.35.35 0 00.131-.303.397.397 0 00-.148-.328.819.819 0 00-.459-.115h-.115v-.41h.123a.607.607 0 00.394-.114.35.35 0 00.139-.295.264.264 0 00-.115-.246.466.466 0 00-.295-.082.67.67 0 00-.344.082.706.706 0 00-.246.246l-.344-.386a.655.655 0 01.164-.172 1.08 1.08 0 01.238-.13 1.35 1.35 0 01.278-.091c.104-.009.208-.009.312 0 .13.001.26.02.385.057a.82.82 0 01.295.148c.083.06.15.139.197.23a.7.7 0 01.065.294.73.73 0 010 .238.983.983 0 01-.106.205.766.766 0 01-.172.148.486.486 0 01-.246.049z" fill="#900"/><path d="M136.885 17.72a3.79 3.79 0 001.787-1.557c.437-.721.665-1.55.656-2.394A4.29 4.29 0 00139 12.13a4.78 4.78 0 00-.893-1.443 4.467 4.467 0 00-1.361-1.032 3.852 3.852 0 00-1.73-.394h-5.983v2.312h5.811c.237-.002.47.055.681.164.225.108.426.261.59.45.175.208.314.443.41.697a2.623 2.623 0 01.016 1.738c-.078.252-.2.487-.361.697-.148.19-.331.348-.541.467a1.398 1.398 0 01-.68.172h-5.926v6.844h2.631V18.27h2.59l2.762 4.541h2.959l-3.09-5.09z" fill="#900"/></svg>