<svg width="140" height="23" fill="none" xmlns="http://www.w3.org/2000/svg"><g clip-path="url(#clip0)" fill="#fff"><path d="M3.91.825H2.27v4.27h-.49V.826H.139v-.41h3.77v.41zm1.762 1.23a1.45 1.45 0 00-.82.254 1.3 1.3 0 00-.475.656v2.13h-.418V1.662h.418v.82c.123-.25.31-.461.541-.615.2-.143.442-.22.689-.221h.09l-.025.41zm1.582 3.147a1.164 1.164 0 01-.45-.082 1.074 1.074 0 01-.607-.565 1.024 1.024 0 01-.082-.418.82.82 0 01.106-.419.926.926 0 01.336-.368c.137-.097.29-.17.451-.214a2.2 2.2 0 01.582-.073 3.95 3.95 0 01.533 0c.165.027.327.07.484.13v-.261a1.016 1.016 0 00-.255-.722.943.943 0 00-.754-.287c-.185 0-.37.036-.54.107a2.385 2.385 0 00-.566.303l-.156-.295a2.295 2.295 0 011.295-.45c.373-.02.739.11 1.017.36a1.344 1.344 0 01.368 1.016v1.55c0 .122.05.188.164.188v.394l-.164.024a.402.402 0 01-.27-.09.295.295 0 01-.098-.238v-.27a1.48 1.48 0 01-.599.475 1.737 1.737 0 01-.795.205zm.123-.385c.22.003.438-.042.64-.131.166-.062.313-.167.426-.304a.344.344 0 00.09-.13.279.279 0 000-.132v-.557a2.795 2.795 0 00-.96-.18 1.377 1.377 0 00-.737.18.606.606 0 00-.279.5.738.738 0 00.238.533.68.68 0 00.254.163c.105.04.216.06.328.058zm3.705.279L9.688 1.66h.46l1.18 3.025 1.188-3.025h.435l-1.402 3.435h-.467zm4.016.106a1.697 1.697 0 01-.688-.14 1.533 1.533 0 01-.541-.393 1.703 1.703 0 01-.36-.565 1.788 1.788 0 01-.132-.697 1.737 1.737 0 01.131-.68 1.697 1.697 0 01.902-.943 1.754 1.754 0 011.369 0 1.639 1.639 0 01.885.95c.09.213.135.442.131.673v.107a.448.448 0 010 .065h-2.95a1.5 1.5 0 00.13.517c.07.149.164.285.28.401.112.114.246.206.393.27a1.1 1.1 0 00.467.09c.111.017.224.017.336 0 .104-.032.206-.073.303-.122.09-.057.171-.122.246-.197a.991.991 0 00.172-.254l.394.107a1.325 1.325 0 01-.23.344c-.097.107-.21.199-.336.27a1.953 1.953 0 01-.418.18c-.16.027-.322.032-.484.017zm1.295-2a1.288 1.288 0 00-.122-.508 1.493 1.493 0 00-.28-.394 1.214 1.214 0 00-.417-.254 1.196 1.196 0 00-.951 0c-.146.06-.28.146-.393.254-.11.118-.2.25-.27.394a1.713 1.713 0 00-.124.508h2.557zM17.672.284h.443v4.033c-.004.11.034.22.106.303a.4.4 0 00.304.107h.164l.163-.074.082.369a2.112 2.112 0 01-.311.082c-.104.01-.208.01-.312 0a.689.689 0 01-.491-.172.664.664 0 01-.172-.492l.024-4.156zm3.336 3.082c.002-.233.046-.463.131-.68a1.69 1.69 0 01.353-.566 1.5 1.5 0 01.54-.377c.221-.093.458-.14.698-.139a1.59 1.59 0 01.82.221c.238.14.43.349.548.599l-.434.13a1.04 1.04 0 00-.41-.409 1.189 1.189 0 00-1.066 0c-.147.071-.28.168-.393.287a1.163 1.163 0 00-.262.434c-.067.173-.1.356-.099.541a1.515 1.515 0 00.37 1c.113.123.25.224.4.295a1.14 1.14 0 00.812.057c.104-.027.203-.068.295-.122.104-.07.195-.155.27-.254a.615.615 0 00.14-.23l.443.131c-.047.128-.12.245-.213.345-.092.109-.203.2-.328.27a2.05 2.05 0 01-.41.18 1.844 1.844 0 01-1.164-.082 1.639 1.639 0 01-.549-.393 1.851 1.851 0 01-.36-.566 1.95 1.95 0 01-.132-.672zm5.459 1.836a1.64 1.64 0 01-1.221-.525 1.851 1.851 0 01-.36-.565 1.918 1.918 0 01-.124-.68 1.77 1.77 0 01.131-.689c.082-.209.202-.4.353-.566.152-.164.336-.295.54-.385.214-.1.446-.15.681-.147a1.59 1.59 0 01.68.147c.205.09.39.221.542.385.15.166.27.357.352.566.09.218.134.453.131.689 0 .232-.041.462-.123.68-.082.208-.201.4-.352.565a1.814 1.814 0 01-.541.386c-.218.092-.452.14-.689.139zm-1.246-1.803c-.001.182.032.363.099.533.062.158.151.305.262.434.11.128.247.229.402.295.15.073.316.11.483.107a1.11 1.11 0 00.484-.107 1.27 1.27 0 00.393-.279c.115-.13.206-.28.27-.442.074-.17.11-.355.107-.541a1.288 1.288 0 00-.106-.533 1.337 1.337 0 00-.27-.443 1.18 1.18 0 00-.394-.303 1.222 1.222 0 00-.484-.107 1.188 1.188 0 00-.483.107 1.27 1.27 0 00-.394.303 1.46 1.46 0 00-.369.992V3.4zm8.976 1.697h-.443V3.178a1.574 1.574 0 00-.197-.885.623.623 0 00-.565-.28.926.926 0 00-.369.075 1.05 1.05 0 00-.328.205 1.378 1.378 0 00-.426.705v2.098h-.45V3.178a1.64 1.64 0 00-.19-.885.624.624 0 00-.565-.28.983.983 0 00-.689.271c-.212.19-.363.438-.434.713v2.099h-.45V1.66h.417v.82a1.64 1.64 0 01.55-.615 1.37 1.37 0 01.762-.221.992.992 0 01.696.246c.18.169.292.395.32.64a1.467 1.467 0 011.32-.886 1 1 0 01.492.107.82.82 0 01.327.295c.087.143.145.302.173.467.04.202.06.408.057.615l-.008 1.967zm2.869.106a1.37 1.37 0 01-.77-.221 1.73 1.73 0 01-.534-.599v2.123h-.45V1.661h.401v.664a1.77 1.77 0 01.55-.525c.22-.13.472-.198.729-.196a1.45 1.45 0 01.656.147c.195.098.37.231.516.394.154.176.277.379.36.598.082.212.124.437.124.664 0 .234-.04.467-.115.688a1.64 1.64 0 01-.811.95 1.451 1.451 0 01-.656.157zm-.123-.393c.173 0 .344-.039.5-.115a1.353 1.353 0 00.639-.762 1.5 1.5 0 00.082-.509c0-.18-.033-.357-.098-.524a1.337 1.337 0 00-.27-.443 1.213 1.213 0 00-.402-.303 1.18 1.18 0 00-.509-.156.935.935 0 00-.352.074 1.302 1.302 0 00-.631.45.762.762 0 00-.14.329v1.057c.048.122.114.235.197.336.082.103.176.196.279.279.102.076.216.136.336.18.118.043.243.065.369.066v.04zm3.467.393a1.164 1.164 0 01-.451-.082.967.967 0 01-.36-.23.918.918 0 01-.246-.335 1.026 1.026 0 01-.083-.418.82.82 0 01.074-.46.925.925 0 01.295-.327 1.44 1.44 0 01.525-.213c.19-.051.386-.076.582-.074a3.95 3.95 0 01.533 0c.165.027.327.071.483.131v-.262a.982.982 0 00-.254-.722.942.942 0 00-.754-.286c-.185 0-.37.035-.54.106a2.385 2.385 0 00-.566.303l-.156-.295a2.295 2.295 0 011.295-.45 1.41 1.41 0 011.016.377 1.346 1.346 0 01.37 1v1.549c0 .123.048.188.163.188v.394h-.172a.402.402 0 01-.27-.09.32.32 0 01-.09-.214v-.27a1.477 1.477 0 01-.6.475 1.733 1.733 0 01-.794.205zm.106-.344c.22.003.439-.042.64-.131.178-.073.334-.192.45-.344a.442.442 0 00.082-.132.277.277 0 000-.13v-.558a2.792 2.792 0 00-.959-.18 1.377 1.377 0 00-.77.196.608.608 0 00-.295.525.737.737 0 00.238.533.68.68 0 00.254.164c.118.03.24.035.36.016v.041zm5.672.238h-.442V3.178a1.706 1.706 0 00-.18-.885.623.623 0 00-.558-.28 1.155 1.155 0 00-.402.075 1.214 1.214 0 00-.36.204 1.368 1.368 0 00-.492.705v2.099h-.45V1.66h.41v.82a1.688 1.688 0 011.458-.82.95.95 0 01.476.107.82.82 0 01.32.295c.086.143.144.302.171.467.034.203.05.409.05.615v1.95zm1.246 1.057h.197a.6.6 0 00.189 0 .393.393 0 00.13-.131c.06-.104.11-.214.148-.328.058-.14.132-.328.238-.566l-1.5-3.467h.46l1.278 3.025 1.18-3.025h.426l-1.778 4.435a.819.819 0 01-.246.327.648.648 0 01-.451.148H47.4l.033-.418zM0 22.694V9.153h2.631v13.54H0zm8.082-8.672v8.672H5.451V9.153h2.04l7.058 8.893V9.177h2.664v13.517h-2.131l-7-8.672zm11.107 1.836a7.064 7.064 0 01.483-2.46 6.632 6.632 0 011.312-2.163 6.434 6.434 0 014.918-2.14 6.123 6.123 0 013.23.82 5.246 5.246 0 012.015 2.123l-2.049 1.36a3.402 3.402 0 00-.647-.958 3.278 3.278 0 00-.82-.623 3.665 3.665 0 00-.91-.328 4.1 4.1 0 00-.934-.107 3.524 3.524 0 00-1.73.402c-.477.255-.894.61-1.221 1.041-.322.442-.56.94-.705 1.467a5.312 5.312 0 000 3.345c.18.53.458 1.022.82 1.45.347.422.776.768 1.262 1.017.506.26 1.07.39 1.64.377.323 0 .645-.038.958-.115a3.69 3.69 0 00.943-.36c.303-.173.58-.388.82-.64a2.87 2.87 0 00.606-.943l2.156 1.238a4.098 4.098 0 01-.918 1.344c-.401.395-.86.726-1.36.984a6.66 6.66 0 01-1.64.615 7.085 7.085 0 01-1.68.205 5.795 5.795 0 01-2.648-.607 6.992 6.992 0 01-2.074-1.598 7.099 7.099 0 01-1.344-2.23 6.852 6.852 0 01-.483-2.516zm19.541 6.934a6.196 6.196 0 01-2.664-.582 6.49 6.49 0 01-2.074-1.549 6.778 6.778 0 01-1.344-2.197 6.991 6.991 0 01-.484-2.54 6.819 6.819 0 01.508-2.59c.328-.812.8-1.556 1.394-2.198a6.754 6.754 0 012.106-1.516 6.336 6.336 0 012.648-.557 5.91 5.91 0 012.68.598 6.714 6.714 0 012.074 1.574 7.227 7.227 0 011.336 2.213c.31.803.47 1.656.475 2.516a6.74 6.74 0 01-.5 2.582 6.927 6.927 0 01-1.369 2.172 6.696 6.696 0 01-2.098 1.509 6.223 6.223 0 01-2.688.565zm-3.927-6.869a5.37 5.37 0 00.27 1.697c.164.528.426 1.02.771 1.45.337.42.759.764 1.238 1.01.507.26 1.07.392 1.64.384a3.541 3.541 0 001.688-.393 3.86 3.86 0 001.238-1.033c.336-.438.594-.932.762-1.459a5.49 5.49 0 000-3.352 4.918 4.918 0 00-.82-1.451 3.688 3.688 0 00-1.188-1.017 3.631 3.631 0 00-1.64-.369 3.549 3.549 0 00-1.696.394 3.702 3.702 0 00-1.246 1.025 4.506 4.506 0 00-.746 1.45 5.406 5.406 0 00-.27 1.664zm23.615 6.771v-8.96l-3.5 6.673h-1.426L50 13.735v8.959h-2.631V9.153h2.828l4 7.705 4.049-7.705h2.803v13.54h-2.63zm9.303-13.541h2.328l5.148 13.54h-2.705l-1.263-3.376H66.5l-1.238 3.377H62.55l5.172-13.541zm3.033 8.344l-1.901-5.344-1.91 5.344h3.811zm5.926 5.197V9.153h5.992c.6-.005 1.192.13 1.73.393.514.256.976.606 1.36 1.033.382.424.684.912.894 1.443.215.52.327 1.076.328 1.64a4.525 4.525 0 01-.656 2.393 3.786 3.786 0 01-1.787 1.557l3.09 5.09h-2.959l-2.762-4.549h-2.59v4.541h-2.64zm2.64-6.836h3.278c.238.001.472-.058.68-.172.21-.119.394-.278.542-.467.16-.21.282-.445.36-.697a2.63 2.63 0 00.131-.86 2.336 2.336 0 00-.557-1.575 1.827 1.827 0 00-.59-.45 1.46 1.46 0 00-.68-.164H79.32v4.385zm19.967-4.394h-4.328v11.23h-2.615v-11.23h-4.328V9.153h11.27v2.311zm6.828 11.329a6.228 6.228 0 01-2.705-.582 6.493 6.493 0 01-2.074-1.55A6.783 6.783 0 01100 18.465a6.985 6.985 0 01-.475-2.541 6.803 6.803 0 01.5-2.59 7.195 7.195 0 011.393-2.197 6.757 6.757 0 012.107-1.517 6.339 6.339 0 012.655-.557 5.89 5.89 0 012.672.598 6.707 6.707 0 012.074 1.574 7.21 7.21 0 011.336 2.213c.314.802.475 1.656.476 2.517a6.76 6.76 0 01-.5 2.582 6.922 6.922 0 01-1.369 2.172 6.61 6.61 0 01-2.098 1.508 6.216 6.216 0 01-2.656.566zm-3.935-6.87c-.002.577.089 1.15.271 1.697.167.527.428 1.018.77 1.451.339.418.76.761 1.238 1.008a3.5 3.5 0 001.639.386 3.544 3.544 0 001.689-.394 3.785 3.785 0 001.238-1.033c.354-.434.628-.928.811-1.459a5.322 5.322 0 000-3.36 4.92 4.92 0 00-.82-1.451 3.688 3.688 0 00-1.237-1.008 3.632 3.632 0 00-1.64-.369 3.547 3.547 0 00-1.696.393 3.594 3.594 0 00-1.238 1.025 4.53 4.53 0 00-.754 1.45 5.407 5.407 0 00-.271 1.665zm18.312 4.541a2.953 2.953 0 001.574-.385 3.121 3.121 0 001.024-.992c.271-.428.46-.904.558-1.401.107-.54.159-1.09.155-1.64V9.153h2.615v6.91a9.52 9.52 0 01-.336 2.606 5.86 5.86 0 01-1.066 2.107 5.126 5.126 0 01-1.836 1.45 6.294 6.294 0 01-2.688.533 6.104 6.104 0 01-2.754-.565 5.182 5.182 0 01-1.845-1.418 5.923 5.923 0 01-1.016-2.148 9.972 9.972 0 01-.32-2.532V9.153h2.656v6.91c.001.55.056 1.1.164 1.639.098.498.287.973.557 1.402.258.402.606.739 1.017.983a3.01 3.01 0 001.541.377zm8.565-7.245a.957.957 0 01.082-.402.86.86 0 01.222-.32.937.937 0 01.336-.213c.134-.057.28-.085.426-.082.152 0 .303.03.443.09a.886.886 0 01.336.263c.104.124.179.27.221.426.052.184.077.374.074.566.004.237-.023.474-.082.704a1.5 1.5 0 01-.222.517.985.985 0 01-.827.418 1.087 1.087 0 01-.509-.123 1.032 1.032 0 01-.393-.336l.311-.344a.824.824 0 00.255.237.7.7 0 00.344.09.53.53 0 00.442-.22c.118-.183.176-.399.164-.616a.539.539 0 01-.237.23.776.776 0 01-.369.09 1.11 1.11 0 01-.41-.074.937.937 0 01-.533-.516 1.037 1.037 0 01-.074-.385zm1.066-.55a.5.5 0 00-.385.164.609.609 0 00-.115.173.635.635 0 000 .213.544.544 0 000 .205.609.609 0 00.115.172.49.49 0 00.172.115c.067.03.14.043.213.04a.433.433 0 00.205-.04.527.527 0 00.287-.287.415.415 0 00.041-.205.474.474 0 00-.041-.213.499.499 0 00-.115-.172.644.644 0 00-.172-.123.574.574 0 00-.205-.041zm2.787.911a.69.69 0 01.418.245c.108.14.163.315.156.492a.777.777 0 01-.287.615 1.172 1.172 0 01-.336.164c-.144.041-.293.06-.443.057-.19.004-.38-.03-.557-.098a1.022 1.022 0 01-.402-.295l.311-.386a.761.761 0 00.255.205.882.882 0 00.377.074.607.607 0 00.377-.098.35.35 0 00.131-.304.397.397 0 00-.148-.328.818.818 0 00-.459-.114h-.115v-.41h.123a.607.607 0 00.394-.115.348.348 0 00.139-.295.264.264 0 00-.115-.246.466.466 0 00-.295-.082.671.671 0 00-.344.082.706.706 0 00-.246.246l-.344-.385a.655.655 0 01.164-.172 1.08 1.08 0 01.238-.131c.089-.04.182-.07.278-.09.104-.009.208-.009.312 0 .13 0 .26.02.385.057a.82.82 0 01.295.147c.083.06.15.14.197.23a.7.7 0 01.065.295.73.73 0 010 .238.985.985 0 01-.106.205.766.766 0 01-.172.147.485.485 0 01-.246.05z"/><path d="M136.885 17.604a3.789 3.789 0 001.787-1.558c.437-.72.665-1.55.656-2.393a4.29 4.29 0 00-.328-1.64 4.78 4.78 0 00-.893-1.442 4.467 4.467 0 00-1.361-1.033 3.852 3.852 0 00-1.73-.393h-5.983v2.311h5.811c.237-.001.47.055.681.164.225.108.426.262.59.45.175.208.314.444.41.698a2.623 2.623 0 01.016 1.738 2.22 2.22 0 01-.361.696 1.81 1.81 0 01-.541.467 1.399 1.399 0 01-.68.172h-5.926v6.845h2.631v-4.533h2.59l2.762 4.54h2.959l-3.09-5.09z"/></g><defs><clipPath id="clip0"><path fill="#fff" transform="translate(0 .284)" d="M0 0h140v22.525H0z"/></clipPath></defs></svg>