<svg width="36" height="36" fill="none" xmlns="http://www.w3.org/2000/svg"><path d="M2.54 9.07h4.032V2.488c0-.601.487-1.089 1.089-1.089H28.34c.6 0 1.088.488 1.088 1.089V9.07h4.032c1.4 0 2.54 1.139 2.54 2.54v13.964c0 1.4-1.14 2.54-2.54 2.54h-4.032v5.399c0 .601-.487 1.088-1.088 1.088H7.66a1.088 1.088 0 01-1.088-1.088v-5.4H2.54c-1.4 0-2.54-1.139-2.54-2.539V11.61c0-1.4 1.14-2.54 2.54-2.54zm24.71-5.494H8.749v5.496h18.502V3.575zM8.749 32.425h18.502V21.628H8.749v10.797zm-6.572-6.85c0 .197.166.363.363.363h4.032v-5.399c0-.601.487-1.088 1.089-1.088H28.34c.6 0 1.088.487 1.088 1.088v5.399h4.032a.368.368 0 00.363-.363V11.61a.368.368 0 00-.363-.362H2.54a.368.368 0 00-.363.362v13.965z" fill="#FAA619"/><path d="M7.66 16.897a1.548 1.548 0 110-3.096 1.548 1.548 0 010 3.096zm5.388 6.878h9.904a1.088 1.088 0 110 2.177h-9.904a1.088 1.088 0 110-2.177zm0 4.325h9.904a1.088 1.088 0 110 2.177h-9.904a1.088 1.088 0 110-2.176z" fill="#FAA619"/></svg>