<svg width="20" height="22" viewBox="0 0 20 22" fill="none" xmlns="http://www.w3.org/2000/svg">
<path d="M10.09 20.1818L11.9082 21V12.8181H10.9991M9.18092 19.7727L8.27182 19.3636V12.8181H9.63547" stroke="black" stroke-linecap="round" stroke-linejoin="round"/>
<path d="M15.8758 3.72728H18.1816C18.7339 3.72728 19.1816 3.27957 19.1816 2.72728V2C19.1816 1.44771 18.7339 1 18.1816 1H7.19812M13.8097 3.72728H1.99975C1.44746 3.72728 0.999748 3.27957 0.999748 2.72728V2C0.999748 1.44772 1.44746 1 1.99975 1H4.71877" stroke="black" stroke-linecap="round" stroke-linejoin="round"/>
<path d="M8.45326 12.8185L1.90778 3.72754H13.7715M11.726 12.8185L18.2715 3.72754H16.226" stroke="black" stroke-linecap="round" stroke-linejoin="round"/>
<path d="M4.95449 5.154L9.0877 10.5963" stroke="black" stroke-linecap="round"/>
</svg>
