<svg width="26" height="25" fill="none" xmlns="http://www.w3.org/2000/svg"><g clip-path="url(#clip0_192:4989)"><path d="M24.636 20.69H.498a.431.431 0 01-.43-.432V4.741a.43.43 0 01.43-.43h24.138a.43.43 0 01.431.43v15.517a.431.431 0 01-.43.431z" fill="#FF4B55"/><path d="M17.282 14.54c-.235-.148-.377.088-.377.088l-.687.08.344-.289c.249.02.282-.054.35-.155.067-.1.35-.053.35-.053-.04-.31-.431-.135-.431-.135-.317-.034-.37.222-.37.222l-.492.377-1.082-.32c.112-.124.2-.246.213-.32.022-.123-.8-.332-1.05-.592-.252-.26-.342-.674-.225-.782.117-.107.216.198.341.45.126.25.36.448.512.323.153-.126-.162-.315-.305-.584-.144-.27.107-.368.224-.341.117.027.189.583.467.87.279.288.53.234.557.055.027-.18-.46-.401-.558-.554-.1-.153-.125-.452.037-.461.162-.01.754.874 1.257 1.212.548.368.988-.063.916-.242-.072-.18-.404-.108-.79-.207-.386-.099-.781-.62-.898-.907-.117-.287-.02-.287.047-.26.068.027.324.404.815.694.492.29.835.013.876-.054.04-.068.195-.37-.31-.299-.575.08-.903-.26-1.138-.442-.236-.182-.33-.431-.223-.532.108-.101.463.354 1.002.498.495.132.696-.08.682-.276-.013-.195-.128-.114-.687-.168-.559-.054-.95-.58-.97-.613-.02-.034-.013-.223.27-.04.283.181.788.289 1.084.276.296-.014.357-.411.216-.479-.142-.067-.175.034-.499.101-.323.068-.93-.262-1.077-.417-.149-.155.013-.256.087-.243.074.014.56.297.99.283.431-.013.613-.41.6-.532-.014-.121-.135-.222-.317-.101s-.424.263-.828.195c-.404-.067-.593-.336-.54-.437.055-.101.445.074 1.065.006.62-.067.646-.613.586-.72-.06-.108-.209-.074-.418.12-.208.196-.613.237-.929.237-.317 0-.323-.155-.276-.263.047-.108.384-.08.855-.229.472-.148.741-.525.815-.761.074-.236-.108-.418-.182-.418s-.027-.107-.35.357c-.323.465-1.172.647-1.172.647-.06-.115-.155-.155-.155-.155-.572.114-1.263.609-1.263.609s.122.39-.03.694c-.196.392-.867.148-.685-.471.152-.515.74-.827 1.238-.882.497-.056.522-.244.522-.244s-.522.17-.531-.063c.108.022.266.031.536.007.4-.035.624-.32.446-.38-.177-.06-.101.122-.405.264-.217.101-.445.055-.56.02.106-.23.55-.112.55-.112.005-.4-.527-.257-.527-.257-.233-.503-1.598.08-1.598.08l.323.261c-.79.44-.952 1.275-.952 1.275s-.162-.835-.952-1.275l.323-.26s-1.365-.584-1.598-.08c0 0-.532-.144-.527.256 0 0 .444-.117.55.113a.8.8 0 01-.56-.021c-.304-.142-.228-.325-.405-.264-.178.06.045.345.446.38.27.024.428.015.536-.007-.01.233-.531.063-.531.063s.025.188.522.244c.497.055 1.086.367 1.238.882.182.619-.49.863-.685.471-.152-.304-.03-.694-.03-.694s-.69-.495-1.263-.61c0 0-.095.041-.155.156 0 0-.849-.182-1.172-.647-.323-.464-.276-.357-.35-.357-.074 0-.256.182-.182.418.074.236.343.613.815.761.471.148.808.121.855.229.047.108.04.263-.276.263s-.72-.04-.93-.236c-.208-.195-.356-.23-.417-.121-.06.107-.034.653.586.72.62.068 1.01-.107 1.064-.006.054.1-.135.37-.539.437-.404.068-.646-.074-.828-.195-.182-.121-.303-.02-.317.101-.013.121.169.519.6.532.43.014.916-.27.99-.283.074-.013.236.088.087.243-.148.155-.754.485-1.077.417-.323-.067-.357-.168-.498-.1-.142.067-.081.464.215.477.296.014.801-.094 1.084-.276.283-.182.29.007.27.04-.02.034-.411.56-.97.614-.56.053-.674-.027-.687.168-.014.195.188.408.682.276.54-.144.894-.6 1.002-.498.107.1.013.35-.223.532-.235.182-.563.523-1.138.442-.505-.071-.35.231-.31.299.04.067.384.343.876.053.492-.29.748-.666.815-.693.067-.027.164-.027.047.26-.117.287-.512.808-.898.907-.386.099-.718.027-.79.207-.072.18.368.61.916.242.503-.338 1.095-1.221 1.257-1.212.162.009.136.308.037.46-.098.154-.585.375-.558.555.027.18.278.233.557-.054.278-.288.35-.845.467-.871.117-.027.368.072.224.34-.143.27-.458.459-.305.585.153.125.386-.072.512-.324.126-.251.224-.556.341-.449.117.108.027.521-.224.782-.252.26-1.073.468-1.051.592.013.074.101.196.213.32l-1.082.32-.491-.377s-.054-.256-.37-.222c0 0-.391-.176-.432.134 0 0 .283-.047.35.054.068.101.101.175.35.155l.344.29-.687-.081s-.142-.236-.377-.088c0 0-.297-.094-.37.189 0 0 .255-.047.323-.014 0 0 .1.23.424.095l.68.033-.384.189s-.485-.155-.464.25c0 0-.142.16-.014.322 0 0 .027-.175.155-.249 0 0 .25.101.41-.195l.493-.296.484.235s-.013.263.344.155c0 0 .121.081.155.189 0 0 .155-.169-.095-.364 0 0-.06-.229-.356-.141l-.277-.142 1.022-.303c.177.168.368.307.435.284.132-.046.233-.183.324-.376.091-.192.502-.862.705-.857.203.005.294.168.243.457-.05.289-.445.842-.701.957-.256.114-.297.168-.533.148-.235-.02-.316.08-.262.216.054.134.319.22.58.12.282-.107.39-.255.497-.168.108.088-.114.405-.417.499-.303.094-.532.034-.485.222.047.189.37.202.58.081.208-.121.444-.458.504-.35.06.107.02.384-.181.532-.203.148-.432.06-.479.195-.067.195.169.323.35.25.182-.075.391-.304.485-.506.095-.202.27-.027.216.162-.054.188-.01.343-.395.64l.718 1.104.719-1.104c-.387-.297-.342-.452-.396-.64-.053-.189.122-.364.216-.162.094.202.303.431.485.505.182.074.417-.054.35-.249-.046-.134-.276-.047-.478-.195-.202-.148-.243-.424-.182-.532.06-.108.296.229.505.35.209.121.532.108.58-.08.046-.19-.183-.129-.486-.223-.303-.095-.525-.411-.417-.499.108-.087.215.061.498.169.26.099.526.013.58-.121.053-.135-.027-.236-.263-.216-.236.02-.276-.034-.532-.148-.256-.115-.652-.668-.702-.957-.051-.29.04-.452.243-.457.203-.005.614.665.705.857.091.193.193.33.325.376.066.023.257-.115.434-.284l1.022.303-.276.142c-.297-.088-.357.141-.357.141-.25.195-.095.364-.095.364.034-.108.155-.189.155-.189.357.108.344-.155.344-.155l.485-.235.491.296c.162.296.411.195.411.195.128.074.155.25.155.25.128-.162-.013-.324-.013-.324.02-.404-.465-.249-.465-.249l-.384-.188.68-.034c.323.135.424-.094.424-.094.068-.034.324.013.324.013-.074-.283-.37-.188-.37-.188z" fill="#464655"/></g><defs><clipPath id="clip0_192:4989"><path fill="#fff" transform="translate(.067)" d="M0 0h25v25H0z"/></clipPath></defs></svg>