<svg width="26" height="25" fill="none" xmlns="http://www.w3.org/2000/svg"><g clip-path="url(#clip0_192:4949)"><path d="M8.4 20.69H.499a.431.431 0 01-.43-.432V4.741a.43.43 0 01.43-.431h7.903v16.38z" fill="#41479B"/><path d="M16.734 4.31H8.401v16.38h8.333V4.31z" fill="#FFE15A"/><path d="M24.636 20.69h-7.902V4.31h7.902c.238 0 .431.193.431.431v15.517a.431.431 0 01-.43.431z" fill="#FF4B55"/><path d="M15.498 13.9a.227.227 0 00-.304-.212c-.112-.1-.315-.347-.111-.696a.162.162 0 00.262-.128.162.162 0 00-.11-.153c.168-.086.407-.267.395-.606-.018-.481-.412-.747-.653-.64l.002-.021a.16.16 0 00-.292-.092c-.01-.048-.009-.137.103-.234.208-.179.444-.608.014-.91-.238-.168-.692-.248-.845-.02-.066.1-.013.242.063.274-.122.068-.352.17-.535.09-.26-.113-.11-.338-.052-.439.102-.177.038-.467-.302-.467-.226 0-.34.227-.566.227-.226 0-.34-.227-.566-.227-.34 0-.404.29-.302.467.058.1.207.326-.052.44-.182.079-.413-.023-.534-.09.075-.033.128-.175.062-.274-.152-.229-.607-.149-.845.019-.43.302-.193.731.014.91.112.097.113.186.104.234a.16.16 0 00-.292.092c0 .007 0 .014.002.02-.242-.106-.636.16-.654.64-.012.34.227.521.395.607a.162.162 0 10.152.28c.204.35.001.598-.111.697a.224.224 0 00-.304.212c0 .118.09.213.205.225-.157.16-.297.514.008.915.332.44 1.125.404 1.508.418a.846.846 0 01.526.225.226.226 0 00.087.416.226.226 0 00.396-.024c.12.099.201.14.201.14s.082-.04.202-.14a.226.226 0 00.396.024.226.226 0 00.087-.416.845.845 0 01.526-.225c.382-.014 1.175.021 1.508-.418.304-.401.164-.755.008-.915a.226.226 0 00.204-.225z" fill="#DCBE82"/><path d="M10.528 10.99v3.286c0 .375.305.68.68.68h.906c.34 0 .453.226.453.226s.113-.227.453-.227h.906a.68.68 0 00.68-.68v-3.284a.113.113 0 00-.113-.113h-3.851a.113.113 0 00-.114.113z" fill="#D2AA73"/><path d="M12.454 11.104h-1.7v1.7h1.7v-1.7zm0 3.625a1.7 1.7 0 01-1.7-1.7h1.7v1.7z" fill="#FF4B55"/><path d="M12.68 14.729v-1.7h1.7a1.7 1.7 0 01-1.7 1.7zm.243-3.625h-.242v1.7h.242v-1.7z" fill="#FFE15A"/><path d="M13.166 11.104h-.243v1.7h.243v-1.7z" fill="#FF4B55"/><path d="M13.408 11.104h-.242v1.7h.242v-1.7z" fill="#FFE15A"/><path d="M13.652 11.104h-.243v1.7h.243v-1.7z" fill="#FF4B55"/><path d="M13.894 11.104h-.243v1.7h.243v-1.7zm.486 0h-.243v1.7h.242v-1.7z" fill="#FFE15A"/><path d="M14.137 11.104h-.242v1.7h.242v-1.7zM11.51 13.03h-.189v1.699h.19v-1.7z" fill="#FF4B55"/><path d="M11.7 13.03h-.19v1.699h.19v-1.7zm.377 0h-.188v1.699h.188v-1.7z" fill="#FFE15A"/><path d="M11.887 13.03H11.7v1.699h.188v-1.7z" fill="#FF4B55"/><path d="M12.454 13.03h-.189v1.699h.189v-1.7z" fill="#FFE15A"/><path d="M12.265 13.03h-.189v1.699h.189v-1.7z" fill="#FF4B55"/><path d="M10.944 14.642V13.03h-.19v1.246c0 .151.076.284.19.366z" fill="#FFE15A"/><path d="M11.133 14.721V13.03h-.19v1.612c.056.04.12.067.19.08z" fill="#FF4B55"/><path d="M11.133 13.03v1.691c.025.004.05.008.075.008h.114v-1.7h-.19z" fill="#FFE15A"/><path d="M11.008 12.707a.045.045 0 01-.025-.008c-.111-.073-.118-.15-.112-.19a.14.14 0 01.1-.111c.05-.014.1 0 .135.04.07.082.143.114.204.091.048-.018.077-.065.077-.101a.045.045 0 11.09 0 .207.207 0 01-.136.185c-.058.021-.173.034-.303-.117a.038.038 0 00-.042-.012.051.051 0 00-.037.04c-.004.03.022.067.073.101a.045.045 0 01-.024.082zm1.197 0a.045.045 0 01-.025-.082c.052-.034.078-.07.074-.101a.051.051 0 00-.037-.04.039.039 0 00-.042.012c-.13.151-.245.138-.303.117a.207.207 0 01-.135-.185.045.045 0 11.09 0c0 .036.028.083.076.101.061.023.134-.01.204-.091a.127.127 0 01.135-.04.14.14 0 01.1.112c.006.039 0 .116-.112.19a.046.046 0 01-.025.007z" fill="#F5F5F5"/><path d="M10.983 12.76a.045.045 0 01-.036-.072l.97-1.275a.208.208 0 00.017-.067c.008-.05.017-.112.094-.158.05-.03.109-.03.158.002.055.035.087.1.08.162-.004.037-.026.106-.127.143a.045.045 0 11-.031-.083c.03-.011.065-.032.07-.07a.085.085 0 00-.04-.077.057.057 0 00-.064 0c-.04.024-.045.05-.052.094a.271.271 0 01-.03.103l-.974 1.28a.044.044 0 01-.035.018z" fill="#FFE15A"/><path d="M11.61 11.357l-.446.535.178.536h.536l.178-.536-.446-.535z" fill="#FFE15A"/><path d="M11.61 11.287l-.496.596.197.59h.6l.196-.59-.496-.596zm-.395.615l.351-.422v.903h-.191l-.16-.481zm.631.481h-.19v-.903l.35.422-.16.481z" fill="#F5F5F5"/><path d="M13.962 13.566l.006-.099s.088-.063.045-.121c-.042-.059-.092-.07-.195-.056-.104.013-.266.01-.336.015-.07.005-.105.043-.216.011l.03-.067s-.052.005-.084.02c-.017.009-.058-.047-.099-.038-.04.009-.08.092-.144.135l.034.068s.038-.018.067.002c.03.02.039.034.088.034l.032.013s-.011.072.036.106c0 0-.054.07-.047.08.006.012.051.098.07.147l.04-.077s-.06-.054-.05-.06c.012-.007.052-.016.045-.034-.006-.018.032.002.075.009 0 0 .002.067.01.076.01.01.023.045.021.084a.056.056 0 01-.036.05l.06.017s.017-.022.028-.02c0 0-.005-.187.02-.216 0 0 .146.03.214-.007 0 0 .009.011.025.021-.006.016-.012.032-.01.036.006.01.024.01.029-.002a.306.306 0 00.007-.022.138.138 0 00.027.006c-.001.014-.001.027.002.03.009.008.025.001.026-.01v-.02a.19.19 0 00.038-.007l-.077.126-.038.015.05.025.045-.018s.042-.108.112-.14c0 0 .047.113-.011.174l.052.03.024-.053s-.009-.1.025-.166l-.04-.097z" fill="#FF4B55"/><path d="M13.115 13.245s-.022-.022-.028-.05c-.006-.028-.012-.04-.037-.048 0 0 .016.018.013.046-.002.028 0 .066.016.079l.036-.027zm.197.079s-.03.105-.12.16l-.032-.014s.096-.083.108-.154l.044.008zm-.154-.054c-.003-.004.04-.016.03-.05-.01-.034-.01-.059.01-.075 0 0 .002.029.018.047s.025.063-.001.089c0 0-.026.02-.057-.011zm.005.307a.01.01 0 01-.005-.014l.014-.028a.035.035 0 00-.014-.045.034.034 0 00-.047.014l-.014.029a.01.01 0 01-.015.005l-.008.017.027.014a.014.014 0 00.025.013.203.203 0 01.028.013l.009-.018zm.11.191l.033.006-.028.087-.029-.045.024-.048zm.082.095l-.02.037h.08v-.019l-.06-.018zm.401-.027v.022h-.092l.044-.045.048.023zm.146.016l-.046.046h.096l.002-.017-.052-.03z" fill="#4173CD"/><path d="M13.962 14.271l.006-.099s.088-.063.045-.121c-.042-.059-.092-.07-.195-.057-.104.014-.266.012-.336.016-.07.005-.105.043-.216.011l.03-.067s-.052.004-.084.02c-.017.009-.058-.047-.099-.038-.04.009-.08.092-.144.135l.034.068s.038-.019.067.002c.03.02.039.034.088.034l.032.013s-.011.072.036.106c0 0-.054.07-.047.08.006.012.051.098.07.147l.04-.077s-.06-.054-.05-.06c.012-.007.052-.016.045-.034-.006-.018.032.002.075.009 0 0 .002.067.01.076.01.01.023.045.021.084-.002.038-.036.05-.036.05l.06.017s.017-.022.028-.02c0 0-.005-.187.02-.216 0 0 .146.03.214-.007 0 0 .009.011.025.021-.006.016-.012.032-.01.036.006.01.024.01.029-.002a.29.29 0 00.007-.022.125.125 0 00.027.006c-.001.014-.001.027.002.03.009.008.025.001.026-.01v-.02a.177.177 0 00.038-.007l-.077.126-.038.015.05.025.045-.018s.042-.108.112-.14c0 0 .047.113-.011.174l.052.03.024-.053s-.009-.1.025-.166l-.04-.097z" fill="#FF4B55"/><path d="M13.115 13.95s-.022-.022-.028-.05c-.006-.028-.012-.04-.037-.048 0 0 .016.018.013.046-.002.028 0 .066.016.079l.036-.027zm.197.08s-.031.104-.121.158l-.032-.014s.096-.082.108-.152l.045.007zm-.154-.055c-.003-.004.04-.016.03-.05-.01-.034-.01-.059.01-.075 0 0 .002.029.018.047s.025.063-.001.089c0 0-.026.02-.057-.011zm.005.307a.011.011 0 01-.005-.014l.014-.028a.035.035 0 00-.014-.046.034.034 0 00-.047.015l-.014.029a.011.011 0 01-.015.005l-.008.017.027.014a.014.014 0 00.025.013.203.203 0 01.028.013l.009-.018zm.11.191l.033.006-.028.087-.029-.045.024-.049zm.082.095l-.02.037h.08v-.019l-.06-.018zm.401-.027v.022h-.092l.044-.045.048.023zm.146.016l-.046.045h.096l.002-.016-.052-.03z" fill="#4173CD"/></g><defs><clipPath id="clip0_192:4949"><path fill="#fff" transform="translate(.067)" d="M0 0h25v25H0z"/></clipPath></defs></svg>